<svg width="24" height="24" viewBox="0 0 24 24" fill="none" xmlns="http://www.w3.org/2000/svg">
<path d="M10.25 17.7143C10.0179 17.7143 9.79538 17.7895 9.63128 17.9235C9.46719 18.0574 9.375 18.2391 9.375 18.4286C9.375 18.618 9.46719 18.7997 9.63128 18.9336C9.79538 19.0676 10.0179 19.1429 10.25 19.1429H13.75C13.9821 19.1429 14.2046 19.0676 14.3687 18.9336C14.5328 18.7997 14.625 18.618 14.625 18.4286C14.625 18.2391 14.5328 18.0574 14.3687 17.9235C14.2046 17.7895 13.9821 17.7143 13.75 17.7143H10.25ZM8.0625 2C7.25027 2 6.47132 2.26339 5.89699 2.73223C5.32266 3.20107 5 3.83696 5 4.5V19.5C5 20.88 6.372 22 8.0625 22H15.9375C16.7497 22 17.5287 21.7366 18.103 21.2678C18.6773 20.7989 19 20.163 19 19.5V4.5C19 3.83696 18.6773 3.20107 18.103 2.73223C17.5287 2.26339 16.7497 2 15.9375 2H8.0625ZM6.75 4.5C6.75 4.21584 6.88828 3.94332 7.13442 3.74239C7.38056 3.54145 7.7144 3.42857 8.0625 3.42857H15.9375C16.2856 3.42857 16.6194 3.54145 16.8656 3.74239C17.1117 3.94332 17.25 4.21584 17.25 4.5V19.5C17.25 19.7842 17.1117 20.0567 16.8656 20.2576C16.6194 20.4585 16.2856 20.5714 15.9375 20.5714H8.0625C7.7144 20.5714 7.38056 20.4585 7.13442 20.2576C6.88828 20.0567 6.75 19.7842 6.75 19.5V4.5Z" fill="url(#paint0_linear_7822_24580)"/>
<defs>
<linearGradient id="paint0_linear_7822_24580" x1="12.0562" y1="-6.10007" x2="12.0562" y2="29.1719" gradientUnits="userSpaceOnUse">
<stop stop-color="#00D4E4"/>
<stop offset="0.78125" stop-color="#1F59EE"/>
</linearGradient>
</defs>
</svg>
