<svg width="824" height="655" viewBox="0 0 824 655" fill="none" xmlns="http://www.w3.org/2000/svg">
<g opacity="0.3">
<path d="M17.1755 101.183V101.183ZM17.1755 101.183L18.6311 100.858L22.3739 99.8799H22.4779L28.0921 98.3592L28.3 97.5988L28.508 97.3816L28.7159 97.7074V97.4902H29.2358L29.3397 97.2729H29.6516L30.0675 96.9471L30.2754 97.0557L30.3794 96.8385L30.6913 96.7298L30.8992 97.0557L31.2111 97.1643L31.9389 97.9247L32.0429 98.1419H32.4587L32.3548 98.3592L32.6667 98.4678L32.8746 98.9023L33.2905 99.1195L33.1865 99.3368L33.2905 99.6627L33.8103 99.7713L33.9143 99.554L34.2262 99.4454H34.6421V99.554H35.0579L35.1619 99.3368L36.3055 99.2282L36.5135 99.0109L36.0976 98.9023V98.5764H36.3055L36.6175 98.3592L36.5135 98.2506L36.8254 98.0333L36.7214 97.8161L37.0333 97.5988V97.2729H37.2413L37.4492 96.8385L37.3452 96.404H37.6571L37.5532 96.0781L37.8651 95.535V95.3177L37.4492 95.1005L37.7611 94.666L37.6571 94.2315L38.177 94.0143L38.073 93.6884L38.3849 93.2539L38.177 92.928V92.6021L38.4889 92.8194H38.6968L38.5928 92.6021L39.0087 92.3849L39.3206 92.4935L39.5285 92.2763V92.059L39.3206 92.1677L39.1127 91.8418L39.3206 91.6245L39.1127 91.4073L39.2166 91.2987L38.9047 90.9728L39.1127 90.7556L39.2166 90.9728L39.4246 90.8642L39.3206 90.6469L39.5285 89.8866L39.6325 89.6693L40.0484 89.5607L40.2563 89.2348H40.7762L40.9841 88.909L40.7762 88.8003L40.6722 88.1486L40.9841 87.8227V87.3882L41.192 87.2796L41.4 87.0624L41.192 86.6279V86.1934L41.296 86.0848L40.9841 85.9761L41.0881 85.6503H41.296L41.5039 85.433L41.296 84.8899L40.9841 84.7813L41.192 84.564L41.0881 84.4554L40.9841 83.9123L40.2563 83.695L40.0484 82.9347V82.6088H40.1524L40.2563 82.3916L40.6722 82.2829L40.4643 82.0657H40.0484V81.8484L40.3603 81.9571L39.8404 81.1967V80.2191L40.1524 80.0019L40.0484 79.4587L39.7365 79.1329L39.8404 78.5897L39.6325 78.3725L39.8404 78.2639L39.7365 78.0466L39.8404 77.7208L40.3603 77.1776L40.2563 77.069L40.3603 76.8518L41.192 76.6345L41.4 76.8518V76.5259L41.8158 76.7432L42.1277 76.3087L42.5436 76.4173L42.8555 76.2V75.8742H43.2714L43.4793 76.0914L43.9992 75.9828L43.8952 75.6569L44.2071 75.2224L44.415 75.1138L44.519 75.5483L44.8309 75.2224L44.9349 75.4397L45.1428 75.2224L45.4547 75.1138L45.5587 74.7879L45.4547 74.6793L45.6626 74.4621L45.5587 74.3534H45.9745L46.0785 74.5707L46.3904 74.3534L46.5983 73.919L46.4944 73.7017H46.9102H47.1182V73.3758L47.0142 73.1586V72.8327L47.2221 72.6155L46.9102 72.2896L47.638 72.3982L47.4301 72.181V71.7465L47.5341 71.5292V70.9861L48.1579 70.5516L48.2618 70.0085L48.4698 70.1171L48.7817 69.8999V69.6826H48.9896L49.0936 69.3568H49.5094L49.7174 69.1395L50.0293 68.5964L49.9253 68.2705L50.6531 67.1843L50.5491 67.0757L50.861 66.5326L51.069 66.4239L51.2769 65.9895L51.6928 65.555V65.3377L52.1086 65.0118L52.5245 64.1429V63.9256L52.8364 63.7084L53.1483 63.1652L53.4602 63.0566L53.7721 62.4049L54.084 62.1876H54.7078L54.6038 62.4049L54.9158 62.2963L55.3316 62.5135V62.2963L55.5396 62.079L55.9554 61.8618V61.7531H56.2673L56.3713 61.5359L56.5792 61.3187V61.1014L56.7872 60.9928L57.203 60.8842L57.5149 60.5583L58.3467 60.341H58.7626L58.9705 60.1238H59.4903L60.8419 59.7979L61.3617 59.4721L64.6887 57.5168L66.3522 56.1047L66.5601 55.9961L68.3276 56.4306L69.5752 54.9099H69.6792L71.2387 54.2581L71.9664 53.1719V52.7374L73.0061 51.2167L73.2141 50.565V50.1305L73.0061 49.5873L73.318 48.5011L74.0458 47.7407L74.2537 47.4149L75.5013 45.5683L76.2291 44.3734L76.645 43.9389L76.749 43.6131L76.645 43.1786L77.3728 42.7441L77.6847 42.9613H77.8926L77.6847 42.6355L77.7886 42.201L78.2045 41.9837L78.6204 42.4182L78.3085 42.6355L78.2045 42.8527H78.7243L78.9323 42.6355H79.2442V42.8527L79.764 42.9613L79.66 43.5044L79.868 43.6131L80.0759 43.1786H80.4918L80.3878 42.9613H80.9077L81.0116 42.5268L81.1156 42.7441L81.3235 42.4182H81.7394L82.0513 42.3096L82.3632 42.6355L82.6751 42.5268L82.987 42.3096L83.091 41.9837L83.6108 41.6578L83.7148 41.332L83.8187 41.2234L84.1307 41.5492L84.4426 41.332V40.8975L84.5465 40.6802L85.0664 40.2457L85.4822 40.1371V39.8113L85.8981 39.4854L85.6902 38.8336L85.7941 38.725L86.314 38.0733L86.5219 37.5302L86.106 37.3129L86.314 37.0957L86.5219 37.2043L86.6259 36.987L86.4179 36.8784V36.5526L86.7298 36.4439L86.8338 36.6612L86.9378 36.4439L87.3536 36.7698L87.8735 36.5526L88.4973 36.987L88.8092 36.8784L88.7052 36.5526L88.9132 36.2267L88.8092 36.0094L88.9132 35.5749L89.329 35.6836L89.7449 35.4663L89.8489 35.3577L89.6409 35.1405H89.8489L89.9528 34.8146L90.3687 34.9232L90.5766 34.8146L90.7846 35.0318L91.0965 34.706H91.6163L91.5124 34.4887L92.0322 34.5973L92.2401 34.3801L92.3441 34.5973L92.9679 34.706L92.8639 34.3801L93.2798 34.1628L93.6957 34.4887L94.2155 34.3801L94.5274 34.5973L94.7353 34.4887L95.2552 34.9232L95.3592 34.706L95.5671 35.1405L95.775 35.0318L95.879 34.706L96.2949 34.8146L96.3988 34.9232L96.7107 34.706V35.1405L97.0226 35.0318L97.2306 35.3577L97.1266 35.4663L97.6464 35.5749H97.8544L97.9584 35.3577L98.3742 35.4663L98.5822 35.7922L98.8941 35.9008L98.998 36.2267L99.3099 36.1181L99.4139 35.9008L99.8298 36.1181L100.142 35.9008L100.35 36.2267H100.558L100.662 36.4439L100.973 36.5526L100.765 36.6612L100.869 36.7698L101.181 36.8784L101.285 37.2043H101.389L101.597 37.5302L101.909 37.6388L102.013 37.856L102.325 37.6388L102.429 37.3129H102.845L102.949 37.4215L103.053 37.2043L103.261 37.4215L103.677 37.3129L103.781 37.7474L103.885 37.5302L104.196 37.6388H104.404L104.3 37.4215L104.716 37.7474L105.132 37.6388V37.4215H105.444L105.548 37.2043L105.86 37.0957L106.38 37.2043L106.276 37.4215L106.692 37.2043L106.796 37.4215L106.9 37.2043H107.211V37.0957L107.627 37.3129L107.731 36.987L108.147 37.0957L108.251 37.2043H108.771L108.875 37.0957L109.187 37.2043L109.395 37.0957V36.7698L109.291 36.5526L109.499 36.1181L109.395 35.7922L109.499 35.4663L110.227 35.3577L110.538 35.0318L110.746 34.2715H110.85L111.162 33.837L111.058 33.6197L111.37 33.4025V32.968L111.994 32.7507L112.098 32.5335L112.202 32.4249L112.306 32.2076L112.618 31.8818H112.826L112.93 31.6645L113.45 31.5559L113.657 31.0128H113.969L114.385 31.1214L114.489 31.0128L114.905 31.1214L115.009 30.9041L115.425 30.7955V30.5783H115.945V30.4697L116.465 30.1438H116.673L116.984 29.8179H117.192L117.504 29.492H117.712L118.128 29.1662L118.232 28.6231L118.544 28.2972V27.9713L118.752 28.0799L118.96 27.7541L119.584 27.5368V27.3196L120.103 26.9937V26.5592L120.519 26.0161L120.623 25.6902L120.831 25.3644L120.935 24.7126L120.831 24.3867L121.351 24.4954L121.663 24.604L122.079 24.4954L122.287 24.2781H123.015L123.119 23.8436L124.678 21.997L126.757 22.4315L127.277 22.866L128.941 23.4091L129.253 24.3867L129.565 24.604L129.876 24.7126L131.124 23.9523L131.748 24.0609L132.788 23.735L132.891 23.8436L134.139 23.5178L135.387 23.1919L136.01 22.866H136.322L136.218 22.3229V21.997L136.53 21.7798L138.298 21.4539L138.61 21.2367L138.922 21.1281L139.13 21.2367L139.337 21.1281H139.857L140.169 20.3677L140.377 20.2591L140.689 19.9332L141.209 19.3901H141.729L142.249 20.3677L143.288 20.6936L143.912 20.3677L144.536 18.4125L144.328 17.109L144.432 16.24L144.848 15.8055V15.6969L145.056 15.371V14.9365L145.472 14.6107L145.887 14.502L146.095 13.7417L146.199 13.4158V12.8727L146.615 12.9813V12.7641H146.407V12.4382L146.719 12.3296L146.511 11.8951L146.719 11.6778V11.352L146.407 10.9175H146.719L146.927 11.1347L147.031 10.9175V10.483L147.239 10.8088L147.551 10.5916L147.655 10.9175L147.967 11.0261L148.383 10.9175H149.11L149.214 10.8088L149.63 10.7002V10.483L149.214 10.1571L149.318 9.93986L149.214 9.61399L149.11 9.39674V9.07087L149.422 8.85363L149.526 8.96225L149.63 8.31051L149.734 8.09326L150.15 8.20189L150.358 7.87602L150.566 8.09326L150.982 7.87602L151.086 8.09326L151.398 7.98464L151.502 8.20189L151.606 8.09326L152.229 7.98464L152.645 8.31051L152.749 8.63638L152.957 8.52776L153.269 8.745L153.061 9.07087H153.373L153.477 9.28812V9.50537L153.789 9.61399V9.83124L153.997 10.0485H154.413L154.517 9.39674L154.725 9.50537V8.85363H155.037V9.07087H155.452L155.764 8.85363L155.66 9.50537H155.972L156.18 9.28812L156.388 9.50537V9.1795L156.7 9.28812L156.804 8.96225L156.908 9.07087L157.012 8.745L157.22 8.85363V8.52776L157.012 8.31051L157.428 8.20189L157.532 7.87602L157.844 8.20189L157.948 7.98464L158.26 8.31051H158.468L158.571 8.41913L158.883 8.52776L159.195 8.31051L159.507 8.52776L159.403 8.31051L159.195 8.09326L159.299 7.76739H159.507V7.55015L159.923 7.65877V7.11566H160.131L160.235 7.3329L160.651 7.22428L160.963 7.44152L161.275 7.11566V7.44152H161.483L161.587 7.65877H161.898L162.002 7.11566L162.314 7.00703V7.22428L162.834 7.11566V6.89841H163.042L163.146 7.11566L163.458 7.00703H163.77L163.562 6.78979L163.874 6.46392L164.082 6.57254L164.186 6.46392L164.082 6.24667L164.602 6.46392V6.13805L164.913 6.24667L165.017 6.02942L165.537 6.24667L165.641 6.02942L166.161 6.35529L166.369 6.68116L166.681 7.00703L168.968 7.87602L170.736 9.39674L171.775 9.1795L173.751 8.85363L176.558 8.09326L177.078 8.52776L177.286 9.28812L177.494 9.83124L177.598 10.5916V11.2433L177.805 11.352H178.325L178.429 11.7865L178.533 12.1123L178.845 12.2209V12.6554L179.261 12.5468L179.573 12.3296L179.885 12.4382L180.197 12.8727L180.509 13.3072V13.633L180.405 13.8503L180.613 14.2848L180.925 14.1762L181.132 14.502L181.652 14.6107L182.172 14.1762L182.588 14.2848L182.796 14.0675L183.524 13.9589L183.94 13.633L184.251 13.5244L184.355 13.3072H184.563L184.771 13.633L185.707 13.5244L185.915 13.633L186.435 13.5244L186.539 13.1986L186.643 12.6554L186.851 12.3296H187.163L187.371 11.8951H187.682L187.994 12.3296L188.202 12.4382L188.618 12.5468L188.93 12.6554L189.45 12.4382L190.178 12.2209H190.593L190.905 11.8951L191.217 12.0037L192.049 12.3296L192.465 13.3072L192.361 13.8503L192.465 14.0675L193.401 14.2848L193.92 14.1762L194.232 14.3934L194.336 14.7193L194.96 15.1538L195.168 15.6969L195.688 16.0228L196.104 16.1314H196.416L196.728 15.8055H196.936L197.143 15.4796V15.1538L197.351 14.7193L197.559 14.6107L198.079 14.3934L198.495 13.9589L199.535 14.0675H199.639L200.366 14.3934H200.678L200.886 14.502L201.718 14.3934L202.238 14.1762L202.55 13.633L203.278 13.3072L204.005 12.5468L204.421 12.4382L204.629 12.5468L204.733 12.3296L205.253 12.2209L205.357 12.4382L205.773 12.2209L205.877 12.1123H206.189L206.293 11.8951H206.605L207.436 12.0037L207.748 12.2209L208.268 12.8727H208.58L208.892 13.1986L209.516 13.3072L210.035 13.7417H210.243L210.763 13.8503H211.179L211.491 13.633L211.803 13.5244L212.323 13.7417L212.843 13.633L213.57 13.5244L213.882 13.4158L214.506 13.8503L214.402 14.0675L214.714 14.502L214.922 14.2848L215.13 14.502L215.442 14.9365L216.481 15.4796L216.585 15.371L217.521 15.5883L217.937 15.9141L218.977 16.4573L219.496 16.24L219.808 16.4573L220.224 16.3486L220.952 16.24H221.576V16.3486L221.992 16.6745L222.408 17.3262L222.719 17.4349L222.823 17.3262L223.655 17.4349L224.175 17.3262L224.695 17.4349L225.111 17.6521L225.319 17.7607L225.631 17.6521L226.254 17.7607L226.878 17.5435H227.086L227.398 17.2176L227.71 17.0004H228.438L228.958 17.3262L228.854 17.5435L229.062 17.8694L229.373 18.1952V18.4125L229.685 18.6297L230.101 18.5211L230.413 18.847L231.037 19.0642L231.453 19.1728L231.661 19.0642L231.973 19.1728L232.492 18.9556L233.012 19.1728L233.324 19.0642L233.532 19.1728L233.74 19.8246H234.052L234.572 20.4763L234.884 20.6936L235.092 21.1281L235.196 21.5625L235.508 21.8884L235.611 22.2143L236.131 22.7574V23.1919H236.339V23.5178L236.755 23.9523L237.275 24.1695L237.379 24.0609L237.483 24.2781H237.795L237.899 24.3867L238.315 24.4954L238.731 24.604L239.042 24.3867L239.874 24.604V24.8212L240.186 25.2557L240.602 25.473L241.122 25.9075L241.434 26.5592L241.954 26.9937L242.369 27.211L242.681 27.1023H243.409L243.721 26.7765L244.033 26.8851L244.137 26.7765L244.449 26.8851L244.553 26.7765L244.865 26.8851L245.8 25.5816L246.008 25.1471L246.112 24.7126L246.424 24.2781L246.84 23.735L247.256 23.5178L247.568 23.0833L247.776 22.7574L248.296 22.4315H248.607L248.815 21.8884L249.127 21.997L249.439 21.5625L249.751 21.8884L249.959 21.7798L250.167 21.8884L250.375 21.6712L250.895 21.8884V21.7798H252.038L252.35 21.8884V22.3229L252.558 22.4315L253.598 23.0833L255.469 23.3005L257.549 22.9746H258.484L260.252 23.1919L260.876 23.5178L262.539 23.1919L262.747 23.0833L263.163 23.3005L263.579 23.1919L264.203 23.3005H264.41L264.514 23.735L264.826 23.5178L265.45 23.3005L265.554 22.9746L266.074 22.866L266.386 22.9746L266.698 23.3005L266.802 23.1919L266.906 23.4091L267.114 23.5178L267.322 23.1919L267.01 22.7574L267.114 22.5402L267.426 22.6488L267.737 22.4315L267.945 22.5402L268.153 22.3229L268.777 22.1057L270.025 21.8884L270.545 22.1057L273.04 21.3453L274.079 20.4763L275.743 20.0418L277.095 17.6521L276.783 16.4573L276.367 16.5659L275.951 14.7193L276.055 14.8279L277.614 14.2848L278.134 13.8503L278.238 13.5244L277.926 13.0899L278.03 12.3296V11.6778L278.654 11.352L278.758 10.9175L278.654 10.7002L278.862 10.5916L282.709 10.9175L283.852 12.9813L287.283 12.8727L289.675 22.2143L287.699 22.866L288.219 24.7126L288.635 26.342L288.843 27.1023L288.947 27.9713L289.155 28.7317L290.402 30.2524L290.714 31.5559L290.818 32.2076L290.714 32.6421L291.026 32.7507L291.546 33.7283L291.858 33.9456L292.17 34.1628L292.482 34.5973L292.898 34.9232L293.314 35.4663V35.5749L295.289 34.9232L296.848 34.3801L298.824 36.2267L299.552 38.5078L299.967 39.594L300.071 39.4854L303.086 38.725L302.671 37.4215L305.894 34.9232L307.349 33.837L310.156 32.6421L311.612 31.9904L312.651 31.0128V29.7093L311.612 29.0576L310.988 26.4506L312.236 25.473L310.78 23.3005V23.1919L311.612 22.7574H312.236L314.835 22.6488H316.186L318.37 22.4315L320.657 22.3229L321.801 22.2143L325.959 21.8884L326.271 21.6712L326.479 21.8884L326.583 21.5625L326.791 21.4539L327.311 21.3453L327.519 21.0194L327.727 20.9108L327.935 21.1281L328.247 20.9108L328.663 20.4763L328.974 20.3677L329.182 20.1504H329.39L329.702 19.8246L329.806 19.3901L330.118 19.4987L329.91 19.1728L329.806 19.2815L329.702 18.9556L332.405 19.2815L333.965 19.3901L341.139 20.0418L344.154 22.1057L345.297 22.3229L346.233 23.735L346.857 24.9299L348.208 27.211L352.887 28.0799L354.135 28.2972L355.694 28.9489L358.189 31.4473L359.749 31.5559L361.62 31.7731L362.972 32.4249L364.635 31.8818L365.363 31.0128L366.819 30.6869L367.234 30.0352L368.274 28.8403L370.977 27.9713L372.953 26.7765L373.161 26.2333L374.824 25.0385L376.384 24.604L377.423 24.2781H378.671L379.191 23.8436L385.221 23.4091L386.468 22.5402L387.82 22.3229L390.627 22.6488L391.355 22.5402L392.811 22.2143L393.642 21.5625L395.826 22.9746V24.9299L394.682 26.4506L394.578 27.4282L393.746 29.492L393.642 30.6869L393.226 31.23V32.099L394.058 32.2076L393.85 34.5973H393.954L395.826 35.3577L395.93 35.4663L396.449 33.7283L397.281 32.099L397.905 30.5783L399.049 29.7093H400.4L402.583 30.7955L407.99 30.6869H412.356H414.228L414.436 30.7955L414.54 31.23L414.436 31.3386L414.54 31.6645L414.436 32.099L414.54 32.6421L419.01 32.7507L421.09 32.8594H422.337H424.001L424.105 33.0766L424.209 32.8594L429.095 32.968L429.615 37.9647L430.135 38.5078L433.254 41.0061L432.838 46.1114L440.012 46.7631L439.804 48.3925L440.636 49.4787L443.027 50.8908L442.819 51.6512L442.923 52.0857L442.611 52.846L442.507 52.9547L442.403 53.715L443.339 54.2581L444.586 53.9323L447.497 53.0633L448.017 52.9547L451.032 53.715L452.072 52.5202L454.463 49.4787L457.686 47.7407L458.934 47.089L459.974 46.5459L462.365 46.8718L464.028 45.2424L465.172 44.9165L466.835 44.5907L466.108 40.6802H466.212L466.731 41.0061L467.459 41.2234L469.019 41.0061L469.539 40.7889L469.851 40.5716H470.37L471.202 40.7889L472.034 40.8975L472.45 41.1147L473.385 41.5492L474.113 42.0923L474.425 42.5268L474.633 42.9613V43.5044L474.737 44.2648L474.841 44.8079L475.465 45.7855L475.985 46.9804L476.089 47.7407L476.297 48.0666L479.416 46.3286L481.079 46.4373L481.599 47.089L485.446 50.9994L489.708 51.7598L490.54 51.3253L490.748 49.696L491.996 49.3701L493.867 48.827L498.857 45.7855L501.249 45.351L503.848 44.1562L505.2 43.6131L507.175 43.9389L507.695 39.3768L506.655 36.7698L506.863 34.706L507.383 34.5973L507.695 34.3801L507.903 33.7283L508.007 33.2939L508.215 32.5335L508.423 32.3162L508.838 31.9904L509.358 31.7731L509.566 31.6645L510.19 31.7731H510.502L511.022 31.4473L511.126 31.23V30.9041V30.4697V30.2524L511.749 29.6007L511.957 29.2748L512.373 28.9489H513.101L513.413 28.7317L513.829 27.8627V27.5368V27.1023L513.933 26.342L513.725 25.7989L513.517 25.473L513.413 25.0385V24.3867L513.933 23.8436L514.349 23.1919V22.7574L513.829 21.7798V21.3453L514.037 21.0194L514.245 20.8022L515.076 20.9108L515.492 20.8022L515.908 20.4763L516.428 20.2591H516.74L517.364 20.4763L517.676 20.9108H518.091L518.611 20.6936L519.339 20.8022H519.755L520.691 20.5849H521.003L522.042 20.8022H522.25L522.666 20.4763L523.29 19.9332L523.498 19.4987L524.018 18.4125L524.537 17.978L524.641 17.5435L524.33 16.24L523.914 15.5883L523.81 15.1538L524.122 14.1762L524.018 13.7417L524.33 13.5244H524.641L524.849 13.633L525.057 13.9589L525.473 14.2848L526.097 14.3934L526.721 14.0675L527.241 13.7417H527.657L528.384 14.2848L528.8 14.3934L529.216 14.1762H529.424L529.736 14.3934L530.568 14.0675V13.7417L530.983 13.633L531.815 13.7417L532.231 13.4158L532.751 13.3072L533.063 13.5244L533.167 13.9589L533.479 14.0675L533.687 14.2848L534.206 14.502L534.414 14.7193L534.726 14.3934L534.622 13.9589L534.83 13.7417L535.038 13.8503L535.454 14.1762L536.078 13.7417L536.182 13.1986L537.014 12.5468L537.637 12.2209L537.845 11.7865L538.365 11.4606L538.469 11.352V10.7002L538.677 10.3744L538.573 10.1571L538.365 9.93986L538.053 10.0485L537.845 9.83124L538.053 9.28812H538.469L538.677 8.85363L538.989 8.745H539.197L540.133 9.39674L540.964 9.72261L541.172 9.83124L541.276 10.3744L541.38 11.1347L541.172 11.352L541.38 11.6778L542.212 11.5692L542.524 11.7865L542.732 11.6778L542.94 11.1347L543.564 10.7002L543.875 10.8088L544.499 11.0261L545.019 10.9175L545.747 10.7002L546.579 10.3744L546.683 10.1571L546.787 9.83124L546.579 9.28812V8.96225V8.745L545.851 8.09326H545.435L545.123 7.22428L545.331 6.02942L545.435 5.70355L545.331 5.48631L545.123 5.16044L545.331 4.83457H545.747H546.059L546.371 4.18283L546.995 3.63971L547.306 3.0966V2.44486L547.722 1.90174L548.034 1.46725L548.45 1.35862L548.866 1.46725L549.282 1.25H549.698L550.01 1.35862L550.321 1.46725L550.217 1.79312L550.321 2.11899L550.529 2.22761H551.153L551.361 1.90174L551.569 1.79312L551.881 2.22761L552.401 2.01036H552.713L552.921 2.33623L553.025 3.0966L553.337 3.31384L554.272 3.63971L554.48 3.96558L554.584 5.26906L554.272 5.81218L553.648 6.57254L553.544 7.65877L553.441 7.87602L553.233 8.20189L552.817 8.31051L552.401 8.745L552.297 9.07087L552.193 9.39674V9.83124L552.817 10.3744L552.609 11.0261L552.713 11.1347L553.025 11.4606L553.129 12.0037L553.233 12.2209L553.648 12.5468L554.064 12.9813V13.1986L553.752 13.5244L554.48 14.0675L554.688 13.8503L554.896 13.633L555.416 13.8503V14.0675L555.728 14.3934L555.624 14.8279V15.0452L555.936 15.371L556.248 15.8055V16.3486L556.56 16.8917L556.871 17.3262L556.663 17.4349V17.7607L557.183 18.3038L557.287 18.7383L557.495 19.2815V19.6073L557.911 20.3677L557.807 20.6936V21.1281H558.015L558.327 20.8022L558.847 20.4763L558.951 20.6936L559.055 21.0194L559.367 21.4539L559.471 21.8884L559.679 22.1057L559.575 22.3229L559.783 22.5402L560.406 22.9746L560.614 22.7574H560.822L561.55 23.5178L561.654 23.735L561.55 24.0609L561.758 24.604V25.1471L561.55 25.473L561.654 26.2333V26.6678L562.07 27.1023L561.862 27.5368H561.446L561.342 27.7541V28.2972L561.446 28.5144L561.134 29.2748L561.238 29.492L561.446 30.0352V30.361L561.55 30.6869L561.758 30.7955V31.23L561.342 31.3386L561.238 31.5559L561.446 31.7731L561.862 31.9904V32.2076L561.654 32.7507V33.1852L561.342 33.6197L561.446 33.9456L561.654 34.2715V34.4887L561.55 34.8146L561.758 35.5749L561.862 35.7922L562.278 36.2267L562.07 36.8784L562.278 37.4215L562.07 38.0733L562.174 38.1819L562.694 38.2905L562.798 38.5078L563.109 38.8336H563.525L563.941 39.1595L564.149 39.4854L564.357 39.9199L564.669 40.6802V41.0061L564.877 41.332L565.397 41.4406L566.125 42.201L566.332 42.0923H566.852L567.164 42.201L567.58 42.6355L568.1 42.9613V43.1786L567.892 43.6131L567.788 44.1562V44.3734L567.684 44.8079L567.788 45.1338L568.308 45.2424L568.516 45.4597V46.0028L568.62 46.4373L568.412 46.6545L568.516 46.8718L568.932 47.089H569.555L569.659 47.1976V47.6321H569.971L570.491 48.0666L571.115 47.6321H571.635L571.843 47.8494L571.947 48.3925L571.635 48.6097V48.9356L571.947 49.2615L572.467 49.3701H572.778L573.61 49.696L573.714 50.0218L573.506 50.7822L573.61 51.1081L573.922 51.4339L574.13 51.6512L574.026 51.9771L573.714 52.4115L573.818 52.9547V53.3892L573.922 53.4978L574.546 53.715L574.754 53.9323L574.026 55.0185L573.714 55.3444L574.338 55.6702L574.234 56.1047H575.17L575.378 56.2134L575.482 57.191L575.378 57.8427L575.17 58.2772L574.962 59.0376L574.65 59.3634V60.0152L574.754 60.2324H575.274L575.482 60.8842L575.794 61.21L576.001 61.6445L576.209 62.079L576.313 62.4049L576.001 62.6221L575.794 63.0566L575.586 64.2515L575.69 64.5773L575.794 65.1205L576.209 65.3377L576.313 65.7722L576.105 66.0981V66.4239L576.417 66.7498L576.625 67.5102L576.313 67.9447L576.417 68.2705H577.041L577.249 67.9447L577.561 67.836L577.873 67.9447L577.977 68.705L578.289 69.7913L578.393 70.1171L578.705 70.6603L579.224 70.7689L579.432 71.0947L579.744 70.8775L580.472 71.0947L581.2 70.6603L582.032 70.9861L582.343 71.0947L582.863 70.9861L583.487 71.2034L583.903 71.7465H584.215L584.943 72.2896H585.67L586.294 72.9413L586.71 73.7017H586.918H588.374L588.997 73.8103L590.141 73.7017L590.869 73.2672H591.597L592.012 73.1586L593.676 73.2672L593.78 73.1586L595.651 70.443L595.755 70.3344L597.523 69.2481L598.354 69.0309L598.458 69.1395L599.082 70.443L599.186 70.5516L600.434 70.8775L600.538 70.9861L600.642 72.2896L601.266 74.0276H601.37L603.345 74.6793L603.553 74.7879L604.489 77.069L604.8 77.2863V77.938L605.424 78.1553L605.736 78.4811L606.672 79.0242L607.296 79.1329L607.504 79.5674L608.231 80.3277L609.583 81.0881L609.687 81.414L611.662 79.8932L611.974 79.7846L612.078 79.676L612.806 79.0242H613.118L613.43 79.1329L615.093 79.3501L618.212 78.6984L622.163 77.938L621.955 80.545L624.346 81.414H624.554L626.01 78.9156L629.233 79.4587L629.129 80.8708L632.768 81.9571L634.431 81.7398L636.199 81.5226L636.511 78.807L636.719 78.0466L636.926 77.7208L638.694 76.7432L640.565 76.0914L642.749 76.9604L644.62 82.7174L647.427 83.4778L649.818 84.2382L652.834 83.8037L654.289 84.1295L656.576 84.0209L656.992 83.695L658.656 81.9571L659.695 80.3277L661.255 81.6312L660.735 83.4778L660.111 85.3244L661.047 86.0848L662.71 87.4969L663.334 88.04L663.23 89.0176L662.814 90.5383L662.503 92.1677L663.23 92.8194L663.022 93.1453L662.814 94.4487L661.671 94.9919L661.463 95.4263L661.775 95.8608V96.7298L663.438 97.5988L664.166 97.9247H664.894L665.829 98.1419L666.869 98.7937L668.533 99.2282L670.716 100.858L671.86 102.704L673.315 103.03L677.578 104.008L680.177 104.985V105.746L680.489 106.18L680.801 107.592V107.809L681.321 108.353V108.896L681.841 109.873L682.256 110.742L682.568 110.959L682.776 111.285L683.088 111.394L683.712 111.285H684.44L684.96 111.937L684.856 112.263L685.583 113.349L685.687 115.413L684.232 117.151L685.791 119.323L689.534 119.106H690.366L691.094 119.432L691.405 120.084L697.54 122.474L697.644 122.582L697.54 122.908L697.748 123.017V123.234H698.267L699.099 123.017L699.411 123.451L699.827 123.777L700.139 123.668L700.451 123.886L700.971 124.103H701.594L701.802 124.212L701.906 124.646H702.322V125.298L702.53 125.624L703.362 125.732L703.674 126.058L703.882 126.818L704.09 126.927L703.986 127.253L704.298 127.47L704.921 128.013L704.609 128.231L705.233 128.882L705.649 128.665L706.689 127.905L711.679 131.163L711.575 133.553L711.679 133.662L712.927 136.269L714.174 137.464L716.982 142.786L717.813 145.067L719.685 147.348L720.516 148.109L722.076 150.607L726.339 151.259L729.458 154.3L730.913 153.431L733.616 155.929L737.255 161.361L738.087 166.14L737.463 167.552V167.987L739.854 172.875L741.206 175.59L741.518 176.568L741.726 176.894L741.83 177.328L742.662 179.609L745.261 181.89L746.924 183.737L748.276 185.475H748.38L748.484 185.692L748.9 185.91L749.004 186.018H749.419L749.731 186.127L750.147 185.91L750.355 186.235H750.667L750.875 186.453L750.979 186.127L751.395 186.018L751.499 186.235L751.707 185.801H751.915L752.331 186.018L752.434 185.801H752.642L754.098 186.127L756.177 188.951L757.009 191.341L757.633 194.708L759.088 195.903V195.794L759.608 195.686L759.816 195.36L759.712 195.142L759.92 194.817L760.232 194.708L761.272 194.382L761.48 194.165L762.103 194.273L762.207 194.165L762.623 194.273L762.727 194.599L763.143 194.817H763.767L764.495 194.382H765.015L765.43 194.599H766.262L766.99 194.817L767.302 194.925L767.51 195.36H768.653L768.965 195.468L769.381 196.229L770.421 196.337L770.629 196.446H770.837L771.669 197.098L771.98 197.641L772.292 197.749L772.708 198.184H773.748L773.54 198.836L773.956 199.813V200.248L774.476 200.465L775.411 200.791H775.723L776.035 200.465L776.659 200.356V201.225L776.867 201.66L777.699 202.529L777.907 202.637H778.842L779.05 202.746L779.258 203.072H779.57L780.714 202.963L780.922 203.072L781.026 202.855L781.337 202.746L781.441 203.072L781.753 202.963L782.065 202.529L782.273 202.637L782.585 202.529L782.897 202.746L783.001 202.42L784.457 202.312H785.08V202.746L785.288 203.181L785.496 203.289L786.224 203.398L786.536 203.506L787.264 203.181H787.887H788.095L788.511 203.615L789.655 202.963L790.487 202.529L791.526 201.986L793.19 202.094V203.181L793.398 204.05L793.19 205.788V207.743L794.126 208.938L793.398 220.778L793.918 223.602L792.774 230.011L791.942 230.662L791.734 230.988L792.254 231.531V231.857L791.942 232.183L791.734 232.4H791.526L791.007 231.749H790.799L790.487 232.4L790.071 232.618L789.967 233.161L789.655 233.486L789.447 234.138H789.239L789.031 234.355L788.719 234.464L788.823 235.116L788.719 235.442L788.199 235.768L787.991 236.093L787.68 236.311V236.419L787.056 236.745L786.952 236.962L787.16 237.18L786.952 237.397V237.723L787.16 237.831V238.266V238.7L786.848 239.026L786.536 239.135V239.352L786.328 239.569L786.016 239.678L785.808 239.461L785.392 239.569L785.184 239.895L784.872 239.787L784.768 239.895H784.353L784.041 240.004L784.145 240.547H783.625L783.313 241.09V241.307L783.105 241.416V241.742H782.377L782.273 241.959L782.065 242.176L781.545 241.742L781.234 241.85L779.674 242.285L778.322 246.087L779.362 248.368L779.986 249.128L780.506 250.214L780.402 252.713L781.961 254.559L782.897 258.035V258.253L782.585 258.361L781.857 258.904L781.649 259.339L780.922 261.077L780.818 261.403L781.753 262.38L782.481 263.249L783.001 264.01L783.209 264.553L782.169 263.901L781.649 263.575L781.13 263.467L780.61 263.792L780.402 264.227L780.818 264.879L781.234 266.182L781.441 266.942L782.585 269.984L783.209 271.505L781.649 272.374L781.753 273.243L781.857 274.981L781.961 275.306H782.169L782.273 275.632V275.958L782.481 277.262L781.026 277.588L780.61 277.805L779.258 278.239L777.803 279.108L776.451 279.651L775.411 282.15L774.268 282.367L773.228 281.281L772.292 282.15L771.461 282.041L771.253 283.67L771.045 285.408L769.797 286.169L769.277 286.603L768.861 286.712L768.757 287.038L767.926 286.929L767.51 287.255L767.406 287.472L766.678 287.364L766.574 287.69L766.782 287.798L767.198 288.45V288.776L767.614 288.993V289.21L767.926 289.427L768.238 289.21V289.645L768.446 289.753H768.549V289.427L768.861 289.536L768.965 289.645L769.173 289.427L769.485 289.536L769.589 289.645L769.901 289.862H770.109L770.629 289.753L771.045 289.427L771.253 289.645L771.565 289.319L772.188 289.971V290.079H772.396L772.604 289.971L772.916 290.079L773.124 290.514L773.332 290.296L773.54 290.188L773.852 290.405L773.748 290.731L774.06 290.84L774.268 291.165L774.476 291.057H774.684L775.411 291.491L775.723 291.383L776.035 291.6H776.451L776.555 291.709L776.763 291.491H776.971V292.034L777.075 292.252H777.491L777.595 292.36L777.907 292.034L778.115 292.143L778.322 291.926H778.426L778.738 291.6V291.926L779.05 292.034L779.362 292.143L779.466 292.36L779.674 292.034L779.778 292.252V292.578L780.09 292.469L780.402 292.686L780.714 292.578L780.818 292.469L781.13 292.686L781.441 292.578L781.545 292.795L781.753 292.578V293.229L781.961 293.447L782.065 293.338L782.169 293.772L782.377 293.664L782.481 293.881V294.098L782.585 294.424H783.313L783.521 294.315L783.729 294.533V294.967L783.937 295.076L784.145 294.533L784.664 294.424L784.768 294.533L784.976 294.315L785.184 293.881L785.704 293.555H786.12L786.224 293.447L786.536 293.229H786.848V293.447L786.536 293.881L786.848 294.098V294.424H787.056L786.848 294.641L786.952 294.75H787.264L787.368 295.076L787.887 294.859V294.641L788.095 294.533L787.991 294.315H788.095L788.823 294.641L789.031 294.533L789.551 294.75L789.863 294.967L790.071 294.859L789.863 294.533L789.967 294.207L790.279 293.881L790.591 293.772L790.695 293.447L790.799 293.121L791.007 293.012L791.318 293.229L791.422 292.903L791.11 292.469L791.214 291.926H790.903L791.214 291.709L791.526 292.034L791.734 291.817L791.942 291.926L792.15 291.709V291.491L792.67 291.057L793.19 291.274V291.491L792.774 291.709L792.67 292.034L792.462 292.578L792.358 293.229L792.67 293.772L793.086 293.881L793.398 294.424L794.229 293.555L794.333 293.664H794.645L794.437 292.795L794.541 292.252L794.749 292.034V291.709L795.061 291.165L795.893 291.057L797.349 290.948H797.452L797.66 290.188L797.868 289.971L798.388 290.079L799.324 290.948L799.532 291.165L800.571 291.926L800.987 291.817H801.195L801.819 292.143L802.235 292.252H802.547L802.963 292.578H804.002L804.418 293.121L805.25 293.772L805.562 294.207L805.666 294.424L806.082 294.533H806.706L807.017 294.424L807.225 294.098H807.641L808.369 293.772L809.825 293.99L810.137 294.098L810.448 293.881L810.656 293.99H811.696L811.8 294.098L812.736 294.641L813.256 294.75L813.464 294.859L813.567 295.185H814.295L814.503 294.859L814.919 294.641L815.647 294.533L815.855 294.75V295.185V295.402L816.375 295.51L816.583 295.293H816.998L817.414 295.51H817.83L818.246 295.836L818.558 295.945L818.766 296.053L818.558 296.597L818.662 296.922V297.357L818.766 297.574L819.286 297.9L819.702 297.791L820.013 298.009L820.429 297.9L820.637 298.009H820.949L821.053 298.226H821.261L820.949 299.312L821.573 300.616L821.781 303.657L820.845 306.047L820.741 306.155L820.429 305.83L816.583 306.699L816.479 307.785V308.437L816.583 308.654L816.063 308.871L815.647 308.111L815.127 308.219L814.815 308.328L814.607 309.414H814.295L814.087 309.849V310.283L813.256 310.5L812.424 310.392L811.384 310.718L811.176 311.261L810.241 311.912L809.721 312.13L809.617 312.347H809.513L809.409 311.587H809.097L808.889 311.804V312.238L808.681 312.564L808.473 312.89L808.161 313.216H807.849L807.641 313.542V313.868L807.225 313.976V314.519L807.017 314.628L806.81 314.954M17.1755 101.183L17.4874 102.813L18.0072 106.18L18.2152 108.461V110.09L18.1112 110.742L17.6953 111.611L17.7993 112.589V112.806L18.0072 113.892L18.1112 114.979L18.2152 116.499V119.106L18.1112 122.039V122.582V124.212L18.0072 126.601L17.6953 129.208L17.5914 129.969L17.2795 131.163L17.1755 131.815L16.8636 133.77L16.4477 135.074L16.1358 136.595L15.9279 137.681L15.72 138.767L15.4081 139.636L14.9922 140.071V140.722L15.0962 141.374L15.2001 142.026L15.0962 143.329V144.09V144.85L15.3041 145.936L15.4081 147.022L15.512 147.566L15.616 148.978V149.412L15.3041 150.498L15.4081 150.824L15.8239 151.802L16.0319 153.323L16.1358 154.083V155.278V156.255L16.3438 157.559L16.4477 158.102V158.862V159.84L16.3438 161.035L16.4477 161.687L16.7596 163.859L16.8636 164.511L17.0715 165.597L17.1755 167.878L17.2795 168.421V168.964L17.3834 170.376L17.4874 172.006L17.6953 173.092L17.7993 174.504L18.0072 175.699L18.3192 176.677L18.5271 177.437L18.735 178.415L19.0469 180.044L19.3588 181.239L19.6707 183.303L19.7747 184.715L19.8787 186.235L20.0866 187.973V188.625L19.9826 189.06L19.7747 189.385L19.3588 189.277L19.8787 189.494L21.1263 190.146L21.8541 190.58L21.958 190.798L22.8937 191.558L23.5175 192.101L24.8691 194.273L24.6612 193.839L24.7651 193.73L25.4929 194.708L25.181 195.034H25.285L25.4929 195.251L25.285 195.36V195.577L25.181 195.686L25.3889 196.446H25.4929L25.285 195.794H25.4929L25.5969 196.12L25.8048 196.011L25.9088 196.229L26.1167 196.12L26.2207 196.446L25.8048 196.663V196.989L26.1167 197.532H26.3247L26.4286 197.749L26.0128 198.075L26.4286 197.858L27.1564 199.596L27.3643 199.813L27.5723 200.356V200.465L27.6762 201.117H27.4683L27.5723 201.443H27.7802L27.9881 202.637L28.1961 203.941H28.404L28.7159 206.331L28.8199 206.113H28.9238V206.548L29.1318 207.417L29.5477 207.308L29.3397 206.657H29.4437L29.7556 207.634L30.0675 207.743L30.6913 209.807L30.8992 210.024L31.2111 211.001L30.7953 211.11L31.2111 211.653H30.8992L30.0675 210.35L29.5477 209.372L29.4437 209.481L28.7159 207.2V206.982L28.3 207.091L28.0921 207.2L28.3 207.96M806.81 314.954V314.954ZM806.81 314.954L806.602 315.497L806.498 315.823L807.017 321.58L806.082 322.123L805.562 322.449L804.938 322.992L804.002 323.861L803.587 324.839L802.963 325.382L802.027 324.187L801.923 324.078L800.779 325.056L800.571 325.165L799.324 326.251L799.636 326.685L799.532 328.423L800.052 328.749L801.091 331.247L801.611 330.704L802.339 331.465L802.859 331.03L803.379 331.465L803.587 331.899L803.691 332.66L802.131 333.963H801.923L799.74 333.094V333.637L799.844 334.18V335.158L799.532 336.027L798.492 336.787L797.764 336.679L796.413 335.484L795.685 335.918L795.165 336.027L794.957 336.461L794.645 337.004L793.502 337.873L793.294 337.656L792.254 338.308L792.462 338.417L791.422 339.177L789.863 338.308L789.343 338.091L787.887 337.33H787.368L785.288 338.634L784.872 338.417L784.768 338.634L784.041 338.199L784.145 338.525L783.417 338.634L782.897 338.851V339.286L782.689 339.177V339.503H782.585L782.481 339.829H782.273L782.065 339.611L781.961 339.286L781.649 339.177L781.545 339.286V339.503L781.441 339.72L781.026 339.611L780.818 339.829L780.61 339.72L780.506 340.046L779.466 338.525L777.283 335.484L774.892 337.439L774.06 337.982L773.436 337.439L772.188 338.634L771.98 340.698L771.876 341.458L771.565 341.892L770.317 343.087L769.589 343.739L769.069 341.675L768.134 342.653L766.678 342.218L766.054 341.675L765.223 341.023L764.287 340.698L764.391 340.915L763.455 341.784L763.039 341.132L763.351 340.698L762.935 340.589L762.623 340.698L762.727 340.915L762.519 341.132L761.584 341.567L761.48 341.892H761.064L760.544 342.436L760.336 342.11L759.816 341.784V341.458L760.024 341.241L760.128 340.48L760.024 340.155L759.4 340.372L758.984 339.72L758.673 339.503V339.394L756.905 338.417L756.489 338.525L755.138 338.199L754.722 338.091L754.826 338.417L754.618 338.742L754.098 339.177L753.37 339.394L752.746 339.503L752.642 339.177L751.603 339.72L751.187 339.177L750.355 339.611L750.667 340.589L750.563 341.241L751.187 341.675L750.667 341.892L750.355 342.001L747.756 342.218V342.544H747.34L747.548 342.761L748.484 343.087L748.796 343.63L748.172 343.739L747.964 344.174L747.34 344.608L746.924 344.717L745.573 344.934L741.934 345.586H741.622L741.206 346.02L737.879 348.736L737.255 349.17V349.605L737.775 350.582L738.399 351.234L739.231 351.886L739.127 351.994L739.854 352.972L739.958 353.298L740.478 353.081L741.518 354.927H741.414L742.038 355.47L743.077 356.774L742.246 357.534L741.726 357.643L741.934 358.077L742.35 358.62L741.934 359.598L741.726 359.489L741.206 359.164L740.374 358.729H740.062L739.543 358.62L738.711 360.033H738.295L738.087 361.01L738.191 361.553L738.295 361.771L739.439 362.096V363.291L738.399 363.509V364.595L738.815 364.703L738.919 364.812V365.898L738.711 366.007L739.023 366.224L737.775 367.636L737.359 368.722V369.157L736.735 369.809L736.424 371.112L735.488 372.416V372.85L734.344 373.285V376.217V377.086L733.2 377.521L732.473 377.847L732.265 378.173L731.537 378.39L731.225 378.607L731.017 378.933H730.601L730.705 378.39L729.874 378.499L729.25 378.173L727.066 378.39L726.858 378.716L726.131 378.824L725.611 379.15L724.987 380.128H724.675L723.947 380.019L723.012 379.368L722.076 379.15L721.452 379.368L721.66 379.802L721.764 381.54L720.62 383.604L716.774 383.93L715.838 384.038L716.046 384.473L715.838 385.342L715.422 385.885L715.942 386.863L716.566 387.949L715.318 388.492L715.422 388.709L714.278 389.035L712.927 389.252L712.615 389.795L714.174 390.882L713.863 391.316L713.135 390.99L712.303 391.099L710.432 390.99L709.392 390.664L708.456 390.882L705.649 389.469L703.882 388.709V387.188H703.05L702.322 388.166L701.906 387.84L700.243 388.492L699.827 389.035L699.099 388.926L698.579 389.144V389.252L697.436 389.795L697.644 390.121L696.812 390.882L695.148 392.294L693.901 392.511L693.589 393.163L692.445 393.814L690.678 393.054L689.846 392.62L689.014 392.511L688.806 393.054L688.494 393.38L688.286 394.249L687.767 394.358H687.559L687.247 394.466L686.519 394.575L685.479 394.792L684.752 396.964L685.791 397.182L685.375 397.616L685.271 398.377L685.167 398.811L684.856 398.92L685.063 399.137M685.063 399.137V399.137ZM685.063 399.137V399.354L685.271 399.571L685.375 399.789L685.271 400.115H685.479L685.583 400.332L685.271 400.766L685.167 401.201L684.856 401.744L684.752 402.722L684.232 402.939L683.92 403.156L683.816 403.482L683.608 403.373L683.4 403.59L683.192 404.351H682.88L682.568 404.677L682.256 405.22L681.944 405.328M681.944 405.328V405.328ZM681.944 405.328H681.841L681.529 405.872H681.321H680.697L680.593 406.306L680.697 406.632L680.489 406.849L680.593 407.066L680.385 407.175L680.073 407.066L679.865 406.958L679.553 407.175V407.392L679.241 407.501L679.137 407.827L679.241 408.153H679.657L679.553 408.479L679.657 408.696L679.241 408.804L679.033 408.587V408.804L678.721 409.239V409.673L678.514 410.217L677.994 410.542L677.682 410.434V410.868H677.474L677.266 411.194L676.85 411.411L676.954 411.737H676.746V411.954L676.434 412.063L676.122 412.28L675.395 412.172L675.187 412.389L674.563 413.258L674.355 413.692V414.344L674.459 415.539V416.191L674.563 416.408L674.979 416.734L675.187 417.06L675.083 417.277L674.667 417.82L674.459 418.255L674.355 419.341L674.459 419.667L674.251 420.21L673.627 421.187L673.419 421.405H673.107L672.379 421.513H671.236L670.612 421.187L670.404 421.839L670.3 422.056L670.092 422.6L669.78 422.708L669.468 423.36L669.26 423.903V424.772L668.117 426.51L668.221 426.727L668.117 427.053L668.325 427.27L668.221 428.139L668.741 430.42L668.845 430.855L668.949 431.724L669.052 432.593L669.364 433.788L669.884 434.983L670.3 436.069L670.092 437.59L669.78 438.35V438.893V439.871L669.884 441.283L669.988 443.89L669.884 444.759V446.279L669.78 447.692L669.676 448.56L669.468 449.321L669.26 450.19L668.741 451.385L668.325 451.928L668.429 453.449L668.637 454.643L668.949 455.838L668.741 456.273L668.117 455.947L667.805 456.056L667.597 456.707L668.221 458.011L668.117 458.119L668.533 459.966L669.26 463.876L669.468 465.289L669.884 467.57L670.196 467.787V468.004L669.572 469.416L669.78 469.633L669.988 469.959L670.196 470.177L670.092 470.611L669.884 470.828L670.092 471.154L670.612 471.371L671.34 472.675L671.132 473.218V473.761L670.82 474.413V474.956L671.236 475.499L671.132 476.259L671.548 477.346L671.34 477.672L671.132 477.78V478.215V478.541L671.444 478.758L671.34 479.084L671.132 479.301L671.548 479.735H671.652L671.756 479.953V480.713V481.039L671.86 481.473L671.964 481.799V482.125L671.652 482.342L672.171 483.32L671.236 483.754L671.652 483.972L671.34 484.406L670.404 485.601L670.508 486.361L669.988 487.013L668.325 487.882L666.245 489.62L665.622 490.163L664.894 490.598L663.958 491.358L663.646 491.141L663.23 491.793L661.983 492.662L660.943 493.531L660.735 493.856L659.487 496.355L658.968 497.441L657.408 500.482L657.304 501.243L656.992 503.089L656.576 504.827L656.368 505.479L655.537 506.783L655.329 507.652L655.121 507.76L654.705 508.412L655.225 508.629L655.121 509.064L654.913 509.498L654.601 509.933L653.977 509.824L653.353 509.715L652.937 510.041L652.314 510.367L652.002 510.802L651.17 511.453L650.962 511.779L649.818 512.431L650.338 513.626L651.274 513.734L651.898 512.974L653.145 513.626L653.353 513.843L653.249 514.06V514.278L653.041 514.495L652.834 514.386L652.73 514.603L652.522 514.712L652.418 515.038H652.21L652.626 515.69L652.418 515.907L652.522 517.536L652.937 517.645L653.041 518.731V519.274H653.249L653.873 521.555L654.081 521.773L653.561 522.967V523.402L652.418 525.14L652.106 525.357L651.69 526.118L650.754 527.53L650.234 528.616L649.507 528.507H648.987L648.571 527.855L648.155 527.312L647.843 528.181L647.531 529.811L647.635 531.006L648.259 532.309L648.467 533.613L648.571 533.83L647.635 534.481L646.699 535.025L645.556 535.785L644.62 536.219H644.204L643.892 539.044L643.684 539.37L643.373 542.085H640.669L640.046 542.302V542.845V543.171L640.565 544.801H642.333L642.541 545.887L642.749 546.213L642.541 546.539L642.021 546.756L642.853 548.928L644.62 548.277L647.739 547.082L648.051 548.711L649.715 549.254L650.858 549.689L652.314 550.123L653.353 548.385L653.769 548.168L654.497 548.603L655.433 550.015L655.953 549.472L658.136 547.19L660.215 546.756L661.255 547.951L662.71 549.906L664.166 551.861L664.062 552.078L664.79 552.947L664.582 553.056L664.894 553.491L664.166 554.251L663.438 555.011L664.478 556.315L663.23 557.51L665.206 559.791L666.453 558.596L666.973 559.248L667.389 558.922L667.805 559.03L668.221 559.465L668.533 559.248L668.741 559.356L669.052 559.899L669.572 559.356L670.508 560.66L669.884 561.203L670.612 562.18L670.404 562.289L670.82 562.941L670.924 563.267L671.34 564.027L671.236 564.462L671.34 564.787L672.275 565.982L672.587 566.417L673.315 567.286L673.419 567.503L673.835 568.263L674.667 568.372L675.187 568.155L675.395 569.241L674.563 569.675L672.795 570.653L673.107 570.87L671.756 571.522V571.631L670.82 572.065V571.957L670.404 572.174L671.028 573.586L670.612 573.912L670.716 574.02L671.236 574.129L671.548 574.563V575.107L671.652 575.432L672.275 575.541L672.795 576.193L673.419 576.519L673.731 577.17L674.043 577.496L674.251 577.714V578.148L674.355 578.365L674.459 579.017L674.667 579.234L674.459 579.777L674.147 580.32V580.755L673.627 581.515L673.211 581.841L673.939 582.493L674.459 583.145V583.579V584.34L674.563 584.883L674.459 585.643L674.979 585.534L675.083 586.186L675.187 586.403L675.81 586.295L675.395 588.793L675.083 589.119L674.979 588.684L674.875 588.793L674.563 588.902L674.459 588.576L674.667 588.684L674.563 588.467L674.771 588.141V587.707L674.875 587.49H674.563L674.459 587.598H674.251L674.147 587.272L673.939 587.381L673.731 587.055L673.523 587.164V587.598L672.691 587.49L672.587 587.816L670.508 587.49L669.156 587.272L668.949 588.576L668.221 588.359L668.429 587.164L666.869 586.947L666.661 586.186L666.141 585.752L664.894 585.317L664.374 585.426L663.958 585.317L663.646 585.426L664.166 585.969H664.062L664.478 586.729L664.062 587.055L663.438 588.033L661.671 588.793L661.983 590.531L661.359 592.378L660.839 592.16H660.215L659.903 592.378L659.28 592.16L658.448 592.378L657.928 592.921L656.992 593.79L656.784 594.767L656.472 595.419L655.121 594.876L654.913 595.636L653.977 595.093L653.457 594.876L653.769 594.224L653.665 593.681L653.145 593.355L652.73 592.812L653.249 592.052L652.626 591.726L651.274 592.269L650.546 592.16L649.611 591.943L649.715 591.074L647.531 590.857L646.907 590.64L645.868 590.205L644.724 589.771H644.516L644.1 590.314L643.268 590.966L642.957 590.531L642.333 589.336L641.813 589.228L640.253 588.576L640.357 587.924H639.734L639.63 586.295L639.734 586.078L639.318 585.534L638.902 586.186L638.174 585.643L637.862 584.231L637.654 583.796H637.03L637.238 583.253L637.446 582.819L637.238 582.602L637.446 582.384L637.862 581.081L638.694 580.972L639.942 580.429L640.981 579.777L641.085 579.995L641.501 579.886L641.813 579.56L643.268 578.691L643.684 578.039L644.204 577.822L644.308 577.17L644.62 575.758V575.65L644.516 575.107V574.889V574.563V574.238L644.204 573.369L643.892 573.26L643.373 573.369L643.061 573.043L642.229 572.608L642.021 572.391L642.437 572.282L642.125 570.762L643.684 570.544L644.516 569.567L644.724 569.675V570.11H645.036L645.348 570.544L645.66 570.436L646.076 571.196L646.18 571.522L646.907 571.196H647.323L648.051 571.413V569.567L647.843 569.35L647.323 569.132L646.907 568.481L645.348 566.199L644.932 564.896L645.556 564.787L645.244 564.136L645.14 563.267L644.516 563.375L644.412 562.289L644.308 562.072L643.996 561.746L643.268 561.855L642.853 561.311L643.58 560.986L643.892 561.094L644.204 560.768L644.412 560.334L644.724 560.117L644.308 558.922L643.996 559.139L643.58 559.356L641.501 558.704L641.293 558.596L640.877 558.053L639.63 557.944L638.798 557.292L638.382 557.401L637.862 554.685L637.55 554.251V553.165L637.134 552.404L637.446 550.775L637.342 550.558L635.991 550.123V550.449L635.159 550.232L635.055 550.34V551.753L635.471 552.622L634.743 552.187L633.288 552.078H632.872V552.947H632.664L632.768 553.925H632.456V554.142L631.416 554.251L631.104 554.468V554.903V555.12L630.792 555.229L630.688 554.794H630.169L629.857 554.903L629.025 554.794L629.337 553.165L627.673 553.273V553.816H626.322L625.282 554.685L624.346 555.446L623.411 555.663L622.891 555.88L622.683 556.423V557.075L622.371 557.836L621.227 558.813L621.019 558.704L620.915 559.139L619.564 558.487L618.94 558.161L618.316 559.465L617.9 559.356L617.069 559.573L616.757 559.791L616.029 560.877L615.613 561.311L615.197 561.637L614.885 561.746L614.677 561.529L614.158 561.637L614.054 561.963L613.638 561.42H613.326V561.094H613.118L612.806 561.203L612.702 561.094L612.39 561.529L611.662 561.746L610.623 562.18L609.271 562.072L608.127 562.289L607.92 562.398L607.608 562.18L607.4 562.289L607.088 562.18L606.984 561.963L606.776 562.289L606.36 562.18L606.048 561.855L605.84 561.42L605.944 561.311L605.736 561.203L605.632 560.986H605.424V560.768L605.112 560.442L604.697 560.225V560.117L604.281 560.008V559.791L604.489 559.899V559.682H604.281L604.385 559.465L604.177 559.139H603.761L603.657 558.922H603.345L602.929 559.899L602.305 561.963L601.785 562.615L601.162 564.136L600.954 564.896L599.602 563.593L599.082 562.832L598.562 561.855L597.211 562.506L596.171 563.267L595.755 563.701L596.067 564.136V564.462H595.963L595.755 564.896L595.963 565.005L595.755 565.113L595.859 565.439L595.755 565.548V566.743L595.651 567.177L595.339 567.72L594.82 567.937L594.508 568.155L594.404 568.589L594.508 569.132V569.675L594.3 570.219L594.404 571.088L594.3 571.522L594.092 572.391L593.78 572.717L593.572 572.826L593.26 573.26V573.912L593.364 574.02L593.156 574.346L592.636 574.781L592.324 575.215L592.116 575.432L591.597 575.65H591.181L590.453 576.301L590.349 576.627L590.037 576.845L589.413 577.17L589.205 577.388L588.374 577.714L588.27 577.931V578.908L588.582 579.669L587.958 580.32L586.71 580.646L586.19 580.972L585.982 581.515L585.774 581.624H585.359L584.943 582.167L584.215 583.253L583.383 584.557L582.551 585.317L582.032 585.969L581.512 586.621L580.992 587.598L580.056 588.902L579.017 589.988L578.601 591.074L577.977 591.509L576.937 591.617L576.625 591.943L576.209 593.573L575.69 594.116L575.274 594.007L574.754 593.898L574.338 593.573L573.506 593.138L571.947 593.247L569.867 593.464L568.1 593.247L567.58 592.812L566.644 591.943L564.981 591.509H564.773L563.733 590.422L563.629 590.097L563.525 588.793L563.317 588.684L562.59 587.816L563.213 587.598L562.902 586.729L562.382 586.078L561.238 584.991L560.614 585.426L560.51 585.317L559.886 584.557L559.783 584.774L559.263 585.1H558.847L558.743 585.209L558.015 585.643L557.079 586.078L556.767 586.186L556.56 586.403H556.456L556.04 586.078L555.624 586.295L555.312 586.512L554.896 587.055V587.49H554.792L554.064 587.707L553.752 587.816L553.337 587.707L552.401 588.576L551.673 588.684H551.361L550.01 589.553L549.594 589.771L549.282 589.988H548.866L548.138 590.314L547.098 590.857L546.891 590.64L546.683 590.314L546.059 590.097L545.539 590.422L544.811 590.531L544.603 590.748L543.356 590.857L542.94 590.314L542.732 590.531L541.9 590.314L541.796 590.857L540.445 591.074L539.821 591.4L540.341 592.16L541.276 593.029L541.796 593.79L542.316 594.442L540.341 595.962L539.405 596.723L538.677 597.483L537.741 598.243L537.118 598.678L536.078 598.786L535.662 598.352L535.246 597.809L534.31 598.135L534.102 598.786L534.518 599.655L534.31 599.981L534.622 600.524L534.726 601.285V601.502L534.83 601.828L535.038 602.48L535.87 603.24L536.702 603.566L537.118 604.109L537.637 604.544L538.157 605.63L538.469 605.956L538.989 606.825L539.197 607.476L539.405 607.802L539.613 608.563L539.925 608.997L540.445 609.649L540.652 610.301L540.756 610.518L541.172 611.821V612.473L541.068 612.69L541.276 612.907L541.068 613.233L541.484 613.451V613.885H541.276L541.172 614.211L541.068 615.406V615.514L540.86 615.949L541.172 616.166L541.068 616.492L541.692 616.709L542.42 617.252L542.836 617.578L543.044 617.904L543.252 618.121L543.668 618.882L544.707 618.99L545.955 618.447L545.851 618.121L546.891 617.578L547.826 618.665L547.722 619.534L547.306 620.077L546.579 620.62L546.059 619.751L545.435 620.185L545.331 619.859L542.42 620.62H542.732L542.94 621.054L542.836 621.163L543.044 621.271V621.597L543.46 622.14L543.044 622.466L542.732 623.118L542.42 623.335V624.204H541.9L541.276 623.987L540.756 624.313L539.821 626.16L539.405 626.051L539.093 626.16L539.197 626.811L540.029 627.572L540.652 627.898L540.133 628.223L539.717 628.332H539.301L539.093 628.549L537.949 628.006V628.115L537.118 627.246L536.182 628.006L535.974 628.115L535.662 628.658L535.038 628.549L534.726 628.766H534.31L533.999 628.984V629.527L533.791 629.744H533.687L533.271 629.201L532.439 628.441V628.115L532.543 627.68L532.127 627.463L532.023 627.246L531.711 627.463V627.789L530.983 628.658L531.711 629.092L532.231 629.744L531.815 629.961L531.295 630.83L528.488 633.98L529.008 634.306L529.736 635.067L529.424 635.718L527.657 635.501L525.057 636.153L524.434 635.936L524.122 635.827L521.834 636.696L521.938 635.718L522.042 635.501L522.562 635.284V634.958L522.874 634.089L523.082 633.655L522.874 631.482L523.186 629.527L523.914 628.549L524.33 626.594L524.226 626.485L524.745 624.856V624.747L523.706 623.009L523.29 623.118L522.77 622.901H521.73L521.107 623.227H520.691L520.171 623.118L518.715 625.182L518.923 625.291L518.403 625.942L517.364 625.616L516.428 625.834L516.116 625.725V625.182L514.453 625.942L513.725 624.747L513.413 625.182H512.893L512.581 625.291L512.165 625.942L511.646 626.268L511.542 626.485V626.92L511.334 627.028L511.23 627.463H511.022L510.814 627.246L510.502 627.572H510.19L510.294 628.006L510.398 628.223L510.294 628.441L510.502 628.549L510.294 628.875L509.774 629.31L509.566 629.092L509.15 629.527L509.046 629.744L508.838 629.527L508.526 629.635L508.215 629.527L508.007 629.853L508.111 630.07L507.799 629.961L507.695 630.179L507.383 630.287L507.487 630.504H507.279L506.967 630.722L506.655 630.613V630.287H506.447V630.504L506.135 630.613L506.031 630.939L505.719 630.83L505.407 631.265H505.2L504.888 631.482V631.699L504.68 632.134L504.576 632.025L504.264 632.677V632.894H504.056L503.328 633.437H502.808L502.496 633.655L502.6 633.98L502.392 634.089L502.184 633.98V634.198L502.08 634.415L501.977 634.198L501.665 634.306L501.353 634.849H500.937L500.001 635.718L498.546 635.61L498.13 636.479L497.61 636.587L497.194 637.13L497.506 638.651L497.194 638.977L497.402 639.194L497.09 639.412L497.298 639.737L496.986 639.846V640.172H496.778L496.674 640.606H496.57L496.674 640.824L496.258 641.149H496.05L495.842 641.367H495.738V641.693L495.531 641.91L495.219 642.127V642.344L495.115 642.779H494.803L494.699 643.105L494.491 642.996L494.283 643.213L494.387 643.322L494.075 643.648L493.659 643.756V644.191L493.451 644.082H493.035V644.3L492.619 644.191L492.412 644.517L492.204 644.734V644.951L491.996 645.169V645.82L491.58 646.472H491.372V646.907H491.06L490.748 647.341H490.436L490.332 647.884H490.436L490.54 648.101L490.332 648.319V648.427L490.124 648.862L490.332 649.079L490.124 649.405H489.916L490.02 649.622L489.916 649.948L489.708 650.057L489.5 650.6H489.189L488.877 651.034H488.565L488.357 650.926L488.149 651.252L487.941 651.36L487.837 651.577L487.733 651.686L487.317 651.469V651.795L487.005 651.686L486.901 650.926L480.767 651.252L479.935 651.469L478.272 651.903L475.465 652.881L472.45 650.926L472.138 650.817L471.722 650.382L471.41 650.165L470.994 650.057L470.474 650.165L470.058 649.731L469.851 649.296L469.435 648.862L469.123 648.753L468.707 648.101L468.603 647.341L468.707 647.124L469.331 646.689L469.539 646.146V645.494L469.331 645.277H469.123L466.42 646.581L464.548 643.322L463.197 643.105L463.093 642.236L462.781 642.019L462.261 641.475L462.677 639.955L461.325 638.977V639.629L461.117 639.955L460.597 640.063L459.974 639.52L458.934 640.932L458.206 640.606L457.79 640.281L457.478 640.498L456.959 640.389L455.711 639.737L455.815 638.434L456.543 637.891L454.567 634.741L453.216 635.718H451.864L450.617 636.479V636.696L448.953 637.13L447.913 636.913L446.25 638.76L445.626 638.543L444.794 638.325H442.923L442.403 637.674L441.987 637.999L441.779 638.76L440.844 639.52L441.051 641.041L440.948 641.584L440.74 642.019L436.789 642.996L430.135 644.625L424.001 646.146L422.753 645.386L422.025 645.494L421.61 643.431L422.441 643.756L422.337 641.693L421.714 640.498L420.986 638.543L419.322 637.456L418.283 637.999H418.075L417.243 637.565L415.579 636.153L415.891 635.501L414.332 634.849L413.604 635.501L413.5 635.827L413.708 636.696V637.022L413.5 637.999L413.604 638.651L413.5 638.977L413.084 639.52L412.668 639.737L411.421 640.389L410.797 641.149L410.485 641.258L409.965 641.367H409.341L408.925 641.149L408.094 640.389L407.366 639.194L407.054 638.868L406.846 638.76L405.91 638.543L405.287 638.325L404.559 638.217H404.247L403.727 638.543L402.791 639.303L402.168 639.955L401.856 640.281L401.128 641.475L400.608 641.91L400.088 642.236L399.568 642.453L398.321 643.322L398.113 643.756V644.408L398.321 645.06L398.633 645.712L399.88 646.472L400.504 647.015L400.816 647.45L400.92 647.884L401.024 648.427L401.128 649.188L401.024 649.513L400.712 649.839L400.504 650.057L399.776 650.165L399.568 650.274L399.049 650.817L398.321 652.012L397.905 652.229L397.593 652.12L397.177 652.012H396.657L396.137 651.903L395.826 652.012L395.514 652.338L394.994 652.012L394.89 651.36L395.098 650.6H395.202L395.93 649.405L395.826 649.188L395.514 649.079L394.89 649.405L394.994 648.97L394.682 648.536M394.682 648.536V648.536ZM394.682 648.536L394.058 647.993M394.058 647.993V647.993ZM394.058 647.993V647.884M394.058 647.884V647.884ZM394.058 647.884L393.85 647.667L393.746 647.232L394.058 647.015L393.85 646.798L393.746 646.363L393.434 645.929V646.146L393.122 645.712L393.018 645.82L392.603 645.929L392.395 645.712V645.494L392.083 645.277L391.979 645.603V645.277L391.771 645.169L391.459 645.386H391.251L391.147 645.06L391.043 645.386H390.731L390.315 644.951L390.107 645.06L390.003 644.843V644.625L389.795 644.517L389.691 644.734L389.38 644.625H389.068L388.86 644.517L388.964 644.191L388.548 644.082L388.652 643.648L388.444 643.756L388.028 643.539V643.431L387.82 643.322L387.508 642.888L387.196 643.105L386.988 642.996L386.365 642.888V642.67L385.949 642.344H385.637L385.845 642.888L385.117 643.431L385.013 643.648L384.701 643.539L384.597 643.431L384.077 643.322L383.765 643.539L383.661 643.648L383.349 643.756L383.246 643.974L382.934 643.865L382.726 643.756L382.414 643.974L381.998 644.191L381.686 644.082L381.582 643.756L381.166 643.431L380.854 643.648L380.438 644.3L379.919 644.408L379.503 644.191L379.295 643.865L378.983 643.756L378.671 643.539L377.943 643.431L377.215 643.648L375.552 644.408L374.928 645.169H374.096L373.265 645.277L373.057 645.169L372.745 645.277L372.433 645.712H372.225L372.121 645.929L371.289 645.169H370.873L370.769 644.843L370.561 644.951L370.353 644.734L370.561 644.408H370.769L370.665 644.082L370.457 643.865L370.353 643.648L370.665 643.539L370.561 643.213L370.353 642.996L370.25 643.431L370.042 643.539L369.834 643.431L370.042 643.105L369.834 642.996L369.73 643.322L369.522 643.105L369.418 642.779L369.21 642.67L369.106 642.888L368.794 642.996L368.482 642.779L368.586 642.562L368.274 642.67L368.066 642.453L368.274 642.127L368.17 641.91L368.274 641.801L367.962 641.693L368.066 641.475L367.442 641.801L367.234 641.693L367.131 641.475L366.923 641.693L366.611 641.149L366.299 641.041L366.195 641.475L365.987 641.367L365.779 641.584V641.801L365.467 641.693L365.363 641.584L365.467 642.236L365.259 642.344L364.843 642.019L364.739 641.693L364.531 641.801V641.475H364.011L363.7 641.693L363.596 641.258L363.284 641.149L362.66 641.475L362.244 641.801V641.584L362.14 641.475L361.828 641.693V641.041H362.036L361.828 640.824L361.412 640.498L361.308 640.281L361.1 640.389L361.204 639.737H361.1L360.996 639.412L360.788 639.52L360.581 638.977L360.892 638.868L360.788 638.651H360.477L360.581 638.543L360.373 638.217H360.061V638.434L359.957 638.325L359.853 638.543L359.541 638.325V638.651H359.229V638.543L358.917 638.434L359.125 638.325L358.813 638.108L359.021 637.782L358.709 637.565L358.917 637.456L358.813 637.13L358.293 637.022L358.501 636.696L357.981 636.479V636.261L357.462 636.044L357.773 635.718H357.358L357.254 635.392L357.15 635.61L356.838 635.501L356.942 635.392L356.838 634.958L356.734 635.175L356.422 635.067L356.318 635.175L356.11 634.849L356.422 634.632V634.306L356.214 634.198L356.006 633.872L355.902 634.089L355.798 633.763L355.694 633.98L355.486 633.872V633.655L355.174 633.546L355.382 633.329L355.278 633.111H355.07L355.278 632.894L354.862 632.677L354.966 632.46H354.758L354.862 632.134H355.07L354.966 631.917L355.174 631.591L354.966 631.699V631.482L354.654 631.156L354.55 630.939L354.758 630.504L354.55 630.396L354.654 630.287V629.853L354.239 629.961L354.342 629.744L354.239 629.527H354.55V629.31L354.446 628.875L354.55 628.549H354.239V628.006L354.031 627.789L354.239 627.354L354.446 627.463V627.246L354.758 627.354L355.174 626.703H355.382L355.59 626.377L355.382 626.16L355.486 625.942L355.694 625.725L355.798 625.508L356.11 625.942L356.422 625.725L356.214 625.508V625.291L356.734 625.399L357.15 625.834L357.254 625.508L356.838 625.399L357.981 624.422L358.085 623.661L358.189 623.335L358.501 622.901L358.293 621.923L358.917 620.946V620.185L359.541 619.859L360.165 619.642L360.373 618.99L359.957 618.013L360.269 616.709L360.477 615.623V614.971L360.581 613.994L360.269 613.233L360.477 611.93L360.685 610.952L360.061 609.214L359.645 608.888L359.229 607.802V604.978M359.229 604.978V604.978ZM359.229 604.978L358.917 604.544L357.669 602.588L357.254 600.633L356.942 599.33L356.214 599.221L355.694 598.243L355.798 597.157L356.006 594.442L355.486 593.681L355.278 591.4L354.862 589.879L354.758 589.228H354.239L353.719 588.684L352.991 588.033L353.303 586.729L352.575 586.512L351.327 585.643L351.119 584.883L351.016 583.688H349.872L348.208 583.253H346.129L345.921 581.733L345.505 580.864L345.401 579.886L344.362 579.234L343.634 578.583L343.426 577.822L343.322 577.062L343.01 576.519L342.49 575.867L342.282 575.215V574.238L341.97 573.477L340.931 573.043L340.723 572.717L340.931 571.413L340.515 571.088L340.099 570.436L339.995 570.327L339.475 570.436L339.059 570.001L338.02 570.219L337.396 569.893L336.98 569.241L336.668 568.372L336.252 567.503L335.524 566.199L334.069 564.787L333.653 564.57H332.405L331.782 564.353L330.95 564.027L328.87 563.701H328.559L328.351 563.81L327.207 563.375L326.271 562.506L325.647 562.724L324.608 562.615L323.152 562.832L322.009 563.267L321.697 563.484L321.281 563.375L320.345 562.615L319.617 562.398L318.786 560.986L318.162 559.682L317.85 559.248L317.33 558.922L316.498 558.161L315.667 556.858L315.251 555.554L313.691 555.229L313.067 555.337L311.612 555.011L310.676 553.925L309.636 553.816L308.493 553.491L308.805 552.187L309.221 550.34L307.869 549.472L307.765 549.146L306.621 548.711L304.854 549.906L303.502 550.666L301.943 551.644L300.903 552.947L299.863 553.056L297.784 551.753L295.497 550.232L294.145 549.58L292.898 548.711L293.417 545.887L294.145 544.366L295.809 542.52L295.081 541.325L293.625 540.456L290.714 539.587L288.323 538.826L286.14 537.197L286.452 536.545L287.803 533.504L288.219 532.852L288.427 531.983L286.348 531.657L284.892 531.549L284.788 530.354L282.085 530.028L279.798 529.485L277.926 528.616L276.783 528.507L273.352 527.855L272.832 527.638L271.272 527.747L271.376 525.466L270.753 525.357L268.569 525.574L266.698 525.14L265.97 525.9L265.034 526.009L264.203 526.118L263.787 527.095L262.851 529.268L261.395 532.744L260.668 534.916L259.94 535.568L257.965 536.871L257.653 535.568L256.197 533.83L255.469 532.961L255.157 532.309L254.845 531.766L254.534 531.549L254.326 530.897L250.271 516.993L245.696 514.495L245.384 514.278L245.488 513.843L245.384 513.409L245.592 513.191V512.648L245.696 511.236V510.476L245.488 509.498V508.738L245.28 507.869L245.073 507.108V506.783L244.865 505.914V505.588L244.761 505.153L244.865 504.284L244.761 503.307L244.657 502.329L244.761 502.003L244.657 501.351V501.243L244.969 501.134L245.073 500.808L244.865 500.482H244.553L244.345 500.265L244.033 499.722L243.929 498.853L243.617 498.419L243.201 498.201L242.993 497.984L242.889 497.332L242.681 497.006L242.577 496.463L242.785 496.029L242.889 495.703V495.268L242.577 494.834L242.473 494.4L242.577 493.748L242.889 493.422V493.205L243.201 492.77L243.721 492.336L244.033 492.118V491.684L244.241 491.249L244.137 490.815L244.345 490.055L245.28 489.403L245.592 489.077L246.008 488.317L246.112 487.556L246.736 486.905L247.048 486.579L246.84 486.47L246.32 486.361L246.216 486.144L245.904 486.036L245.592 485.818L245.28 485.167V484.406L245.176 483.537L244.761 483.429L244.241 483.103L243.721 482.885L243.409 482.668L243.097 482.234L242.889 481.799V481.039L243.201 479.844H243.305L244.761 478.975L244.865 478.866L245.28 477.889L245.696 477.237L245.904 476.803L247.048 476.259H247.256L247.984 475.934L248.192 474.739L248.296 474.521L248.088 474.304L248.296 473.761L248.088 473.652V473.327L248.192 473.218L248.503 472.675L248.607 472.892L248.815 472.784L248.607 472.458L248.815 472.24L248.919 471.806L249.231 471.589L249.439 471.697H249.647L249.751 471.48L250.271 471.154L251.103 470.828H251.415V470.285H251.726V469.742H251.934L252.038 469.525L251.934 468.764L252.142 468.33L252.246 467.787L251.726 467.352L251.103 467.026L250.999 466.809L251.519 465.723L251.622 465.614H252.766L253.182 464.419L252.974 463.876L252.558 463.551H252.35L252.246 463.333H251.83L251.934 463.225L251.622 463.116L251.311 462.899V463.007L250.895 462.79L250.687 462.247L250.479 462.138L250.375 461.704V461.378L249.855 461.161L249.439 460.835L249.543 460.4L249.231 460.292L249.439 459.966L249.751 459.857L249.959 459.966L250.583 459.749L250.687 459.531L250.375 459.423L250.687 459.097H250.791V458.771L250.375 458.337V458.011L250.479 457.468H250.063V457.359H249.751L249.439 457.793L249.127 457.685V457.25L249.231 456.925L248.919 456.816L248.815 456.273L248.711 456.056L248.503 455.947V455.73L248.815 455.621V455.078L248.711 455.295L248.607 455.187V454.861H248.815L249.127 454.535H248.919L249.023 454.209L249.231 454.318L249.127 453.774L249.231 453.231L249.439 453.123L249.335 452.905L249.543 453.014L249.647 452.688H249.959L249.751 452.471H250.063L250.271 452.797L250.687 452.58L250.583 452.471H250.375L250.479 452.036H250.687L250.375 451.602L251.103 451.493L251.311 451.167L251.519 451.059L251.415 450.842H251.934L251.83 450.19L251.934 449.864L251.726 449.755L251.934 449.321L251.622 449.104L251.207 449.321V448.886L250.999 448.669L251.103 448.343L250.791 448.452L250.583 448.343L250.895 448.017L250.583 448.126L250.791 447.909L250.687 447.474L251.519 445.954L251.207 445.628L250.999 445.193H251.103L251.415 444.65H251.207V444.433L251.622 444.324L251.83 444.433L251.934 444.324L252.142 444.433L252.038 444.65L252.246 444.541V444.216L252.454 443.998L252.766 444.216V443.89L252.974 443.672L253.078 443.781L253.39 443.564L253.598 443.455L253.806 443.129L254.118 443.238L253.91 442.912L254.326 442.695L254.534 442.803V442.478H254.742L254.638 442.043L254.949 442.152L255.053 441.717L255.469 440.848L255.261 440.74L255.469 440.197H255.781L255.885 439.979L255.677 439.871L255.469 439.545L255.781 439.436L255.989 439.219L256.093 439.436V439.653H256.405L256.509 439.979H256.717L256.821 439.762L257.029 439.871L257.237 439.328L257.549 439.219L257.757 438.676H257.861V439.11L258.172 439.002L258.38 438.784L258.588 439.002L258.796 438.893H259.108L258.692 439.219L258.796 439.545L259.212 439.762L259.108 439.871L259.004 440.305L259.316 440.414L259.732 440.305L259.524 440.088H259.732L259.94 440.414L260.148 440.088L259.836 439.871L260.044 439.653L259.94 439.11L260.252 438.893L260.564 439.219H260.772L261.084 438.893L261.291 438.35L261.084 438.024L260.668 438.133L260.564 438.35L260.044 438.784L259.836 438.676V438.459L260.148 438.133V437.481L260.46 436.938L260.876 436.612V435.743L261.084 435.526L261.499 435.634L262.123 435.526L262.643 436.177L262.955 436.069L263.267 435.417V434.983L263.787 434.874L264.722 435.091L265.034 435.2L265.138 435.526L265.554 434.983L265.762 434.548L265.97 434.222L265.762 433.896L265.866 433.462L266.906 433.136L267.322 433.027L267.426 432.702L267.01 432.158L266.802 431.833L266.49 431.615L266.282 431.289L265.866 430.855V430.638L266.282 430.529L266.49 430.203L266.594 429.769H267.01L267.322 429.986L267.737 430.095L268.569 429.877L268.985 429.986L269.401 429.877L270.025 429.443V429.226V428.791L269.713 428.574L269.401 428.357L269.089 427.813L269.193 427.488L269.401 427.27L269.609 427.053L269.505 426.727L269.297 425.858L269.401 425.532L269.713 425.098L269.921 424.338L270.233 424.12L270.857 424.338L271.064 424.229L271.168 423.903V423.577L271.064 423.143H270.337L270.233 422.6L269.817 422.165L269.193 422.274L268.985 422.056L269.193 421.296L269.505 421.079L269.713 421.296H270.025L270.233 420.753V420.536L269.921 419.667L269.817 418.689L269.713 418.472L269.193 418.146L268.257 418.037L267.945 417.929L267.426 417.386L267.322 417.168L267.426 416.843V416.517L267.53 416.082L267.841 415.648L268.049 415.43L268.153 414.779L268.361 414.561H268.673L268.777 414.127V413.801L268.569 413.475H268.153L267.945 412.932L267.426 412.389L266.906 412.28L265.866 411.629L265.45 411.737L265.242 411.629L264.826 411.194L264.618 410.76L264.722 410.434V409.891L264.826 409.565L265.138 409.348L265.242 408.913V408.479V408.153L265.554 407.501L265.762 406.741L266.074 406.306L266.49 405.763L266.802 405.546V404.894L266.282 404.351H265.762L265.658 404.134V402.83L265.554 402.504L265.138 402.178L264.93 402.07L264.307 402.178H264.203L264.099 401.853L264.203 400.984L263.995 400.658L263.371 400.332H262.955L262.643 400.006L262.435 399.463L262.123 398.92L261.915 398.811H261.188L260.876 398.92L260.46 399.354L259.836 400.006L259.524 400.223L259.212 400.984L258.796 401.201L258.38 400.984L258.068 400.875L257.549 400.115L257.445 399.68V399.354L257.549 398.811L257.445 398.377V397.508L257.549 396.856L257.237 396.313L257.029 395.987L256.821 395.552L256.093 395.444H255.781L254.845 395.77L254.534 396.095L254.118 396.964L253.91 397.399L253.702 397.508H253.494L253.286 397.29L252.87 397.182L252.558 396.856V396.53L252.142 396.095L252.038 395.77L252.142 395.335L252.35 394.901L252.974 394.249L253.702 394.032L254.43 393.597L254.534 393.38L254.43 392.837L254.014 392.294L251.83 392.185L251.415 392.076L251.103 391.968L250.895 391.533L250.791 391.099L250.895 390.556L250.583 390.23L250.167 390.121L249.855 389.795L249.751 389.469L249.543 389.035L249.439 388.6L249.023 387.949L249.127 387.297L249.231 387.08L249.335 386.645L248.711 385.776L248.088 385.342L247.776 385.233L247.568 384.907L247.048 384.69L246.84 384.473L246.528 383.495L246.216 383.169L245.592 383.061L245.384 383.169L245.073 383.387L244.969 383.604L244.553 383.93L244.033 383.821L243.617 383.387L243.513 382.626L243.409 381.214L243.097 380.78L242.577 380.019L242.161 379.693L241.538 379.368L241.226 379.476L240.81 379.802L240.186 380.128L239.874 380.671L239.666 380.888L239.458 381.323L239.562 381.757L239.978 382.3L240.186 382.843L240.29 383.495L240.186 383.93L240.498 384.038L240.81 384.256L240.706 384.581L240.394 384.907L240.186 385.342L239.978 385.559L239.666 385.45L239.562 385.233V384.907L239.25 384.581L239.042 384.69L238.938 385.233L238.834 385.342H238.523L238.003 384.907L237.795 384.364L237.379 384.147L237.067 383.604L237.171 382.843V382.409L236.963 382.083L237.067 381.54L237.275 380.997L237.171 380.454L236.963 380.345L236.755 380.454L236.339 380.345L236.131 379.476V379.259L235.923 378.716L235.611 378.607L234.884 377.63M234.884 377.63V377.63ZM234.884 377.63L235.196 377.086L234.884 375.892L234.676 375.348L234.468 375.131L234.052 374.697L233.324 374.045V373.393L233.116 373.176H232.7H232.077L231.661 372.959L231.557 372.416V371.438L231.349 371.112L230.933 370.569L230.725 369.917V369.048L230.517 368.505V367.853L230.725 367.528L230.829 366.984V366.441V366.007V365.138H230.621L230.933 364.812L230.621 364.486L230.413 364.269V364.052L229.997 363.183L229.893 362.64L230.101 361.662V361.227L229.685 358.62L229.477 358.512H228.75L227.606 358.729L225.215 359.381L224.071 359.707L223.135 360.141L222.304 360.576L220.12 361.988L219.081 362.531L217.209 363.726L216.066 364.377L214.922 364.812L214.09 365.029L213.154 365.138H212.531L211.283 365.029L210.555 364.703L208.892 363.617L208.268 363.183L207.02 362.748L206.397 362.64H205.773L204.421 362.857H202.55L202.03 362.748L200.782 362.422L196.52 360.902L196.104 360.793H192.361L191.633 360.684L190.801 360.576L189.97 360.467L188.722 360.033H188.202H187.578L185.915 360.141L184.875 360.358L183.94 360.576L182.796 360.793L181.548 360.902H180.509H179.261L178.013 361.119L177.494 361.227L176.87 361.445L175.414 362.205L174.79 362.531L173.439 362.857L173.023 362.748L171.983 362.64L170.216 362.314H169.488L169.176 362.531L168.24 363.291L166.889 364.052L166.265 364.703L165.849 365.572L165.537 367.31L165.433 367.636L165.121 368.397L164.913 368.831L164.394 369.374L163.562 369.809L161.691 370.352H161.067H159.611L158.675 370.243L157.74 369.917L156.596 369.483L155.037 368.505L154.205 367.853L153.789 367.31L153.165 366.55L152.749 365.681L152.229 364.269L151.918 363.291L151.814 362.64L151.918 361.988L152.125 361.119L152.541 360.358L153.061 358.946L153.165 357.751V356.557L153.061 356.014L152.749 355.579L152.125 355.036L151.398 354.819L149.318 354.384L148.487 354.276L147.239 354.384L145.679 354.927L144.952 355.362L144.12 356.339L143.808 356.991L143.496 357.208L142.872 357.643H142.56L142.041 357.534L141.313 357.1L140.273 356.774H139.026L138.09 356.557L137.466 356.339L135.907 355.905L134.971 355.47L133.515 354.601L132.788 354.058L131.436 352.972L130.5 352.538L129.045 352.32L127.901 352.212L127.069 351.994L126.445 351.669L125.926 351.125L125.198 350.148L124.678 349.496L124.366 348.953L123.119 347.432L122.599 346.672L121.975 346.237L121.455 346.02L120.415 345.912H119.792L117.816 346.237H117.192L116.049 345.912L114.281 345.151L113.761 344.934L112.41 343.848L111.786 343.522L111.058 343.196L109.187 342.761L108.875 342.653L108.563 342.327L108.355 342.001L108.147 341.567L108.043 340.915V340.046V339.503L107.731 338.742L106.9 337.765L106.276 337.222L105.34 336.244L104.3 335.266L103.781 334.832L103.261 334.506L101.909 333.963L101.597 333.746L100.558 332.551L99.9337 331.573L99.206 330.813L98.7901 330.487L98.3742 330.378L96.3988 329.944L95.775 329.727L95.0473 329.292L94.5274 329.075L93.6957 328.858L92.9679 328.749H91.8243L91.0965 328.64L90.5766 328.315L90.2647 327.989L89.1211 326.794L88.6013 326.468L87.9775 326.033H87.6656H86.6259L85.0664 326.142L84.3386 326.251L83.4029 326.468L82.6751 327.011L82.1553 327.446L81.0116 328.749L80.3878 329.075L79.9719 329.292H79.4521H78.9323L78.1005 328.858L77.5807 328.423L77.1648 327.88L76.9569 327.337L76.541 326.359L76.3331 325.49L76.2291 325.273L75.8132 324.839L74.2537 323.318L73.2141 322.449L71.7585 321.037L71.1347 320.494L70.8228 320.059L70.5109 319.407L69.8871 317.887L69.0553 315.932L68.8474 315.063V314.302L68.4315 312.781L68.3276 312.13L68.1196 311.912L67.2879 311.152L66.6641 310.283L66.2482 309.523L65.7284 308.545L65.3125 306.807L64.8966 305.83V305.612L64.0649 304.743L62.8173 302.788L62.4014 302.354L61.7776 301.593L61.2578 301.485L61.0498 301.593L60.8419 301.919L60.634 302.897L60.3221 303.114L59.8022 303.331L58.6586 303.548L58.1387 303.766L57.8268 303.874L57.0991 304.743L56.2673 305.612L55.9554 305.721L55.2277 305.938L54.8118 306.155L54.3959 306.481L53.5642 307.676L53.2523 308.002L52.8364 308.545L52.1086 309.088L51.069 309.74L50.861 309.957L50.5491 310.826L50.3412 311.152L50.0293 311.695L49.1975 312.347L47.742 312.89L47.2221 313.216L47.0142 313.433L46.5983 313.759L45.9745 314.085L45.4547 313.759L44.9349 313.868V313.65L44.7269 313.107L44.8309 312.89H45.0388L45.3507 312.673H45.5587L45.8706 312.564L46.0785 312.13L46.1825 311.587L45.9745 309.849L45.5587 309.197L45.4547 308.871L45.1428 308.437L45.2468 308.002L45.1428 307.893L44.9349 307.024L45.0388 306.807L44.9349 306.373V305.83L45.0388 305.286L44.9349 305.178L45.2468 304.961H45.5587L45.6626 304.743L45.9745 304.526L47.1182 303.657L46.9102 303.331L47.2221 303.114H47.1182L47.3261 302.679L47.2221 302.462L47.638 302.354L47.846 301.593L48.0539 301.702L48.1579 301.05L48.4698 300.942V300.616L48.6777 300.29V299.638L48.7817 299.529L48.4698 298.878L48.5737 298.117L48.3658 298.009L48.1579 297.574V297.357L47.9499 297.14L47.846 296.705V296.379L47.5341 295.836L47.638 295.402L47.9499 295.185L47.846 295.076H47.3261L47.1182 294.315L46.9102 293.99L46.4944 293.229L45.8706 292.686L45.5587 292.469L44.623 292.034L44.2071 291.709H44.1031L43.7912 292.034H43.1674L42.5436 291.6L42.6476 291.274L42.7515 290.948L42.6476 290.188L42.1277 289.971L42.2317 289.536L42.4396 289.427L42.6476 289.645L42.7515 289.427L42.9595 289.536L42.8555 289.21L43.3753 288.776V288.124H43.4793V287.69L43.8952 287.364L43.9992 287.472L43.8952 286.929H43.5833L43.4793 286.386L43.1674 286.495V286.06L43.3753 285.952L43.6873 285.191L43.5833 285.083L43.9992 284.865H44.2071V284.431H44.3111L44.623 284.757L44.7269 284.648L45.1428 284.865L45.2468 285.3L45.5587 285.191L45.6626 285.083L45.4547 284.431L45.2468 284.105H45.1428L43.9992 283.236L43.3753 283.345L43.2714 283.236L43.0634 283.345L42.5436 283.562L42.1277 283.888L41.9198 284.105L41.5039 284.865L41.4 285.952L41.296 286.277V286.82L41.5039 286.929L41.6079 287.255L41.4 288.124L41.0881 288.884L40.7762 288.993H40.1524L39.8404 288.776L39.3206 288.667L39.0087 288.776L38.073 289.21H37.8651L37.7611 289.102H37.5532L37.2413 288.884H36.7214L36.0976 289.102L35.4738 289.319H35.2659L35.1619 289.427L34.6421 289.645L34.5381 289.102L34.954 288.667L35.2659 288.015L35.4738 287.907L35.6817 287.255L35.8897 286.929L36.0976 286.386L36.6175 285.517L36.7214 284.974L37.1373 284.539V284.214L37.4492 283.453L37.5532 283.345L37.6571 282.91L37.969 282.041V281.498L38.4889 281.063L38.6968 280.955L38.5928 280.846L38.9047 280.194L39.1127 279.543L39.4246 279L39.7365 278.131L39.8404 277.044L39.9444 276.827L39.8404 276.175L40.1524 276.067L40.2563 275.306L40.4643 274.763L40.7762 274.546L40.8801 274.22L41.296 274.003V273.677L41.6079 272.917L41.9198 272.482L42.1277 271.939L42.3357 271.831L42.5436 271.287L42.6476 270.636L42.7515 270.527L42.8555 270.093L42.9595 269.984L42.7515 269.875L42.6476 269.549V268.029H42.7515L42.6476 267.703V266.182V265.639V265.313V264.987L42.7515 264.661L42.8555 264.118V263.684L42.6476 263.358L42.8555 263.249V262.815L42.9595 262.706L42.6476 262.598L42.8555 262.489L42.9595 261.837V260.86L43.0634 260.642V260.099L43.1674 259.122L43.0634 258.47V257.709H43.2714L43.0634 256.949L43.2714 256.515L43.1674 256.406L42.9595 255.646V255.211L42.7515 254.559L42.8555 254.125L42.7515 253.908V253.365L42.6476 253.256L42.5436 252.821V252.278L42.4396 251.844L42.5436 251.301L42.4396 250.975H42.3357V250.54L42.1277 249.997V249.78L42.0238 249.671L41.8158 249.237L41.4 248.694L41.296 248.259L41.192 247.825L40.8801 247.39L40.7762 246.847L40.8801 246.413L40.7762 245.978V245.435L40.1524 245.001L40.6722 244.783L40.5682 244.349L39.8404 243.588L39.5285 243.48V243.045L39.1127 242.828L39.0087 243.045L38.8008 242.828L38.2809 242.502L37.969 242.068L37.8651 241.633L37.4492 240.764L37.3452 240.004L37.4492 239.895L37.2413 239.352L37.3452 239.135L37.2413 238.809V238.592L37.0333 237.94L36.9294 236.745L37.0333 236.202L36.8254 235.985L37.1373 235.224H37.0333L37.1373 234.79L37.0333 234.138L36.6175 232.943V232.4H36.4095V231.857L36.0976 231.314L36.3055 230.988L36.0976 230.554H35.8897L35.6817 230.011L35.4738 229.902L35.2659 229.467L35.0579 228.816L34.85 228.707L34.746 228.164L34.3302 227.621L33.8103 226.969L33.3945 226.209L33.2905 225.883L32.9786 225.34V224.797L32.7707 224.362H32.5627L32.4587 224.036V223.71L32.1468 222.19L32.0429 221.538L31.9389 220.995L31.731 220.886L31.8349 220.56L31.731 220.126L31.4191 219.04V218.496L31.2111 218.279L31.1072 217.302V217.084L31.0032 216.433L30.5873 214.912L30.3794 214.477L30.0675 214.152L29.9635 213.934L29.5477 213.391L29.2358 212.631V211.219L29.0278 210.567L28.7159 210.676L28.8199 210.458L28.6119 209.807L28.8199 209.698L28.7159 209.155L28.3 207.96M28.3 207.96V207.96Z" stroke="url(#paint0_linear_7822_24344)" stroke-width="2.5"/>
<path d="M20.8146 191.015L21.2305 191.341V192.427L21.4385 193.948L21.8543 196.555L22.0623 198.836L22.2702 201.551L22.5821 205.462V206.113L22.6861 207.96L22.79 209.698L22.894 211.436V213.065L22.998 215.672V218.171L22.894 220.126L22.79 224.253L22.5821 227.186V228.381L22.3742 231.205L22.0623 235.333V235.876L21.9583 237.505L21.8543 238.7L21.6464 240.004L21.4385 242.394L21.1266 244.349L20.6067 247.39L20.1908 249.237L19.9829 250.106L19.671 251.844L19.0472 254.994L18.8393 255.971L18.4234 257.601L18.3194 258.47L18.0075 260.208L17.9036 260.534L17.5917 261.837V262.163L17.0718 264.661L16.448 266.834L15.7202 269.767L14.9925 272.156L14.8885 272.591L14.2647 274.329L13.8488 275.524L13.6409 276.393L13.225 277.479L12.8091 278.891L12.0814 280.738L11.6655 282.041L10.9377 283.67L10.6258 284.757L9.89805 286.495L9.37821 287.798L9.06631 288.558L8.4425 290.296L7.92266 291.491L7.29886 293.121L6.46712 294.967L5.94728 296.162L5.21951 297.791L4.69967 298.878L4.38776 299.747L3.65999 301.159L2.93222 302.679L2.30841 303.874L1.78857 304.852L2.10048 304.961L3.03619 305.178L5.94728 305.721L6.36315 304.852V304.309L6.57108 303.983L7.09092 303.548L8.23457 302.897L8.33853 302.571L7.8187 301.159L7.92266 300.724L8.1306 300.181L8.96234 299.747L9.37821 299.312H9.58615L9.27424 299.203L9.37821 298.552L9.27424 298.443V298.117L9.58615 297.357L10.3139 296.379L11.1457 295.402L11.4576 294.967L11.8734 294.75L13.121 294.424L13.5369 294.207L13.7449 293.99L14.0568 293.881L14.2647 293.664L14.6806 293.446L15.3044 292.903H15.4083L15.7202 292.577L16.2401 292.034V291.926L15.9282 291.708L15.7202 291.491L15.5123 290.731V289.753L16.2401 288.015L16.448 287.689L16.552 287.146L16.448 286.712L15.7202 285.734L15.6163 285.408L15.8242 284.757L15.9282 283.67L15.8242 283.344L16.1361 282.693L17.2797 281.498L17.5917 281.281L17.6956 280.955L18.0075 280.629L18.1115 279.977L18.9432 278.891L19.2551 278.348L19.1512 278.022L18.7353 277.913L18.5274 277.696L18.4234 277.153L18.7353 276.501L19.2551 275.849L19.671 275.632H19.567L20.1908 274.981L20.3988 274.872L20.5027 274.546L20.7107 274.437L21.0226 274.003H21.2305L21.3345 273.677L20.7107 273.134L20.5027 272.482L20.2948 272.699L20.0869 272.374L20.1908 271.939H20.2948L21.0226 271.287L21.4385 271.07L21.8543 270.744L21.9583 270.527L22.3742 270.201L22.4781 269.984L22.894 269.767L23.6218 269.115L23.3099 268.354V268.029V267.703L21.5424 265.313L21.2305 265.096L20.7107 264.553V264.227L21.1266 263.901L21.2305 263.575V263.249L21.1266 262.597L21.2305 262.38L21.6464 261.728L21.8543 261.294V260.534L21.9583 260.208L21.8543 259.773L22.1662 258.904L22.4781 258.47L22.5821 258.144L22.6861 257.384L22.5821 256.84L22.79 256.08L23.1019 254.885V254.559L23.5178 253.364L24.6615 251.844L24.5575 251.301L24.2456 251.083L24.1416 250.54V249.889L23.9337 249.454V248.802L24.1416 247.933V247.173L24.3495 246.087L24.8694 245.109L24.4535 244.675L24.3495 244.566L24.2456 243.371L24.4535 242.828V242.176L24.6615 241.09H24.8694L24.7654 240.764L24.8694 240.221L24.7654 240.112V239.569L24.6615 239.352L24.8694 238.918V238.374L25.0773 238.049L25.2853 237.831H25.1813L25.4932 237.071L25.5972 236.854L25.8051 236.311L25.7011 236.093L26.013 235.768L26.117 235.333H25.8051V235.007H26.221L25.9091 234.138V233.704L26.117 232.943L26.013 232.617V232.183L26.117 230.988V230.228L26.221 230.01L26.4289 229.25L26.3249 228.816L26.117 228.598L26.013 228.381L26.117 227.621V226.752L26.3249 226.1L26.4289 225.991L26.7408 225.231L26.5329 224.797L26.4289 224.145L26.3249 223.819V222.733L26.8448 221.864L26.9487 220.886L27.0527 220.452L27.1567 219.583L27.0527 218.931L26.8448 218.822L26.7408 218.171L26.6368 218.062V217.736L26.7408 217.193V216.758L26.6368 216.433L26.7408 216.107V215.02V214.695L26.6368 214.586V213.283L26.4289 212.848L26.5329 212.196H26.4289V211.436V211.11V209.698L26.3249 208.938H26.221L26.117 208.394L26.221 207.2L26.4289 205.787L26.6368 205.136L26.7408 205.027V204.484L26.9487 203.615V202.637H26.8448L26.7408 202.094L26.8448 201.986L26.7408 201.66L26.013 199.922L25.2853 198.401L25.0773 198.184L24.9734 197.749L24.1416 195.903L23.6218 195.034L23.4138 194.382L22.6861 193.187L22.3742 192.427V191.992H22.1662L21.7504 191.666L20.8146 191.015ZM20.8146 191.015L19.567 190.363L18.8393 190.146L19.4631 190.254L20.8146 191.015Z" stroke="url(#paint1_linear_7822_24344)" stroke-width="2.5"/>
</g>
<defs>
<linearGradient id="paint0_linear_7822_24344" x1="421.626" y1="-262.663" x2="421.626" y2="886.552" gradientUnits="userSpaceOnUse">
<stop stop-color="#00D4E4"/>
<stop offset="0.78125" stop-color="#1F59EE"/>
</linearGradient>
<linearGradient id="paint1_linear_7822_24344" x1="14.5745" y1="143.337" x2="14.5745" y2="347.165" gradientUnits="userSpaceOnUse">
<stop stop-color="#00D4E4"/>
<stop offset="0.78125" stop-color="#1F59EE"/>
</linearGradient>
</defs>
</svg>
