<svg width="123" height="15" viewBox="0 0 123 15" fill="none" xmlns="http://www.w3.org/2000/svg">
<path d="M10.6123 14.8096H7.98541L3.65482 8.48985L2.28426 9.60343V14.8096H0V0.89467H2.28426V7.54759C2.56345 7.20495 2.84581 6.86231 3.13135 6.51967C3.41688 6.17703 3.70241 5.83439 3.98794 5.49175L7.90926 0.89467H10.4886L5.29188 6.98604L10.6123 14.8096Z" fill="url(#paint0_linear_7822_24461)"/>
<path d="M16.4181 4.0736C17.3572 4.0736 18.1631 4.26713 18.8357 4.65419C19.5082 5.04124 20.0254 5.5901 20.3871 6.30076C20.7487 7.01142 20.9296 7.86167 20.9296 8.85152V10.0508H13.8959C13.9213 11.0723 14.1942 11.8591 14.7145 12.4112C15.2411 12.9632 15.9772 13.2392 16.9226 13.2392C17.5952 13.2392 18.198 13.1758 18.731 13.0489C19.2703 12.9156 19.8255 12.7221 20.3966 12.4683V14.2862C19.8699 14.5336 19.3338 14.7145 18.7881 14.8287C18.2424 14.9429 17.5888 15 16.8274 15C15.7931 15 14.8826 14.8001 14.0958 14.4004C13.3154 13.9943 12.703 13.3915 12.2589 12.592C11.8211 11.7925 11.6022 10.7995 11.6022 9.61294C11.6022 8.43274 11.802 7.4302 12.2018 6.60533C12.6015 5.78046 13.1631 5.15228 13.8864 4.72081C14.6098 4.28934 15.4537 4.0736 16.4181 4.0736ZM16.4181 5.75825C15.7138 5.75825 15.1428 5.98667 14.705 6.44353C14.2735 6.90038 14.0197 7.5698 13.9435 8.45178H18.7405C18.7341 7.92513 18.6453 7.45875 18.474 7.05266C18.309 6.64657 18.0552 6.32931 17.7126 6.10089C17.3763 5.87246 16.9448 5.75825 16.4181 5.75825Z" fill="url(#paint1_linear_7822_24461)"/>
<path d="M25.698 14.8096H23.4518V0H25.698V14.8096Z" fill="url(#paint2_linear_7822_24461)"/>
<path d="M32 6.44353L31.1326 14.8096H28.8959L28 6.44353C28 6.44353 29.5142 6.84189 30 6.84692C30.4957 6.85206 32 6.44353 32 6.44353Z" fill="url(#paint3_linear_7822_24461)"/>
<path d="M38.4708 4.0736C39.8033 4.0736 40.809 4.36865 41.4879 4.95875C42.1732 5.54886 42.5159 6.46891 42.5159 7.71891V14.8096H40.9264L40.4981 13.3154H40.422C40.1237 13.6961 39.816 14.0101 39.4987 14.2576C39.1815 14.5051 38.8135 14.6891 38.3947 14.8096C37.9822 14.9365 37.4778 15 36.8813 15C36.2532 15 35.6916 14.8858 35.1967 14.6574C34.7018 14.4226 34.3116 14.0673 34.026 13.5914C33.7405 13.1155 33.5977 12.5127 33.5977 11.783C33.5977 10.698 34.0006 9.88261 34.8065 9.33693C35.6187 8.79124 36.8433 8.48985 38.4803 8.43274L40.3077 8.36612V7.81408C40.3077 7.08439 40.1364 6.56408 39.7938 6.25317C39.4575 5.94226 38.9816 5.7868 38.3661 5.7868C37.8395 5.7868 37.3287 5.86294 36.8338 6.01523C36.3388 6.16751 35.8566 6.35469 35.3871 6.57678L34.6637 4.99682C35.1777 4.72398 35.7614 4.5019 36.415 4.33058C37.0749 4.15926 37.7602 4.0736 38.4708 4.0736ZM40.2982 9.77475L38.9372 9.82233C37.8204 9.8604 37.0368 10.0508 36.5863 10.3934C36.1358 10.736 35.9105 11.2056 35.9105 11.802C35.9105 12.3223 36.066 12.703 36.3769 12.9442C36.6878 13.1789 37.0971 13.2963 37.6047 13.2963C38.3788 13.2963 39.0197 13.0774 39.5273 12.6396C40.0412 12.1954 40.2982 11.5451 40.2982 10.6885V9.77475Z" fill="url(#paint4_linear_7822_24461)"/>
<path d="M54.8319 4.27348V14.8096H53.0711L52.7665 13.3915H52.6428C52.4207 13.7532 52.1383 14.0546 51.7957 14.2957C51.453 14.5305 51.0723 14.7049 50.6536 14.8192C50.2348 14.9397 49.7938 15 49.3306 15C48.5374 15 47.8585 14.8667 47.2938 14.6002C46.7354 14.3274 46.3071 13.9086 46.0089 13.3439C45.7107 12.7792 45.5616 12.0495 45.5616 11.1548V4.27348H47.8077V10.736C47.8077 11.5546 47.9727 12.1669 48.3027 12.573C48.639 12.9791 49.1593 13.1821 49.8636 13.1821C50.5425 13.1821 51.0819 13.0425 51.4816 12.7633C51.8813 12.4841 52.1637 12.0717 52.3287 11.526C52.5 10.9803 52.5857 10.3109 52.5857 9.51777V4.27348H54.8319Z" fill="url(#paint5_linear_7822_24461)"/>
<path d="M60.276 0V7.15736C60.276 7.48096 60.2633 7.83629 60.2379 8.22335C60.2126 8.60406 60.1872 8.96256 60.1618 9.29886H60.2094C60.3744 9.07678 60.5711 8.81662 60.7995 8.5184C61.0343 8.22018 61.2563 7.96002 61.4657 7.73794L64.6827 4.27348H67.2525L63.0362 8.80393L67.5286 14.8096H64.9017L61.5324 10.184L60.276 11.2595V14.8096H58.0393V0H60.276Z" fill="url(#paint6_linear_7822_24461)"/>
<path d="M76.5133 0V7.15736C76.5133 7.48096 76.5006 7.83629 76.4753 8.22335C76.4499 8.60406 76.4245 8.96256 76.3991 9.29886H76.4467C76.6117 9.07678 76.8084 8.81662 77.0368 8.5184C77.2716 8.22018 77.4937 7.96002 77.703 7.73794L80.9201 4.27348H83.4899L79.2735 8.80393L83.7659 14.8096H81.139L77.7697 10.184L76.5133 11.2595V14.8096H74.2767V0H76.5133Z" fill="url(#paint7_linear_7822_24461)"/>
<path d="M89.5812 4.0736C90.9137 4.0736 91.9194 4.36865 92.5984 4.95875C93.2836 5.54886 93.6263 6.46891 93.6263 7.71891V14.8096H92.0368L91.6085 13.3154H91.5324C91.2341 13.6961 90.9264 14.0101 90.6091 14.2576C90.2919 14.5051 89.9239 14.6891 89.5051 14.8096C89.0926 14.9365 88.5882 15 87.9918 15C87.3636 15 86.802 14.8858 86.3071 14.6574C85.8122 14.4226 85.422 14.0673 85.1364 13.5914C84.8509 13.1155 84.7081 12.5127 84.7081 11.783C84.7081 10.698 85.111 9.88261 85.9169 9.33693C86.7291 8.79124 87.9537 8.48985 89.5907 8.43274L91.4182 8.36612V7.81408C91.4182 7.08439 91.2468 6.56408 90.9042 6.25317C90.5679 5.94226 90.092 5.7868 89.4765 5.7868C88.9499 5.7868 88.4391 5.86294 87.9442 6.01523C87.4492 6.16751 86.967 6.35469 86.4975 6.57678L85.7741 4.99682C86.2881 4.72398 86.8718 4.5019 87.5254 4.33058C88.1853 4.15926 88.8706 4.0736 89.5812 4.0736ZM91.4086 9.77475L90.0476 9.82233C88.9308 9.8604 88.1472 10.0508 87.6967 10.3934C87.2462 10.736 87.0209 11.2056 87.0209 11.802C87.0209 12.3223 87.1764 12.703 87.4873 12.9442C87.7982 13.1789 88.2075 13.2963 88.7151 13.2963C89.4892 13.2963 90.1301 13.0774 90.6377 12.6396C91.1517 12.1954 91.4086 11.5451 91.4086 10.6885V9.77475Z" fill="url(#paint8_linear_7822_24461)"/>
<path d="M102.097 4.0736C102.275 4.0736 102.468 4.08312 102.678 4.10216C102.887 4.12119 103.068 4.14657 103.22 4.1783L103.011 6.27221C102.878 6.23414 102.713 6.20558 102.516 6.18655C102.326 6.16751 102.154 6.15799 102.002 6.15799C101.602 6.15799 101.221 6.22462 100.86 6.35787C100.498 6.48477 100.178 6.68147 99.8985 6.94797C99.6193 7.20812 99.4004 7.5349 99.2418 7.9283C99.0831 8.3217 99.0038 8.77855 99.0038 9.29886V14.8096H96.7576V4.27348H98.5089L98.8135 6.12944H98.9182C99.1275 5.75507 99.3877 5.41243 99.6986 5.10152C100.01 4.79061 100.365 4.54315 100.765 4.35914C101.171 4.16878 101.615 4.0736 102.097 4.0736Z" fill="url(#paint9_linear_7822_24461)"/>
<path d="M109.093 13.1916C109.385 13.1916 109.673 13.1662 109.959 13.1155C110.244 13.0584 110.504 12.9917 110.739 12.9156V14.6098C110.492 14.7176 110.171 14.8096 109.778 14.8858C109.385 14.9619 108.975 15 108.55 15C107.954 15 107.418 14.9016 106.942 14.7049C106.466 14.5019 106.088 14.1561 105.809 13.6675C105.53 13.1789 105.39 12.5032 105.39 11.6402V5.97716H103.953V4.97779L105.495 4.18782L106.228 1.93211H107.636V4.27348H110.654V5.97716H107.636V11.6117C107.636 12.1447 107.77 12.5412 108.036 12.8014C108.303 13.0615 108.655 13.1916 109.093 13.1916Z" fill="url(#paint10_linear_7822_24461)"/>
<path d="M122.065 4.27348V14.8096H120.305L120 13.3915H119.876C119.654 13.7532 119.372 14.0546 119.029 14.2957C118.687 14.5305 118.306 14.7049 117.887 14.8192C117.468 14.9397 117.027 15 116.564 15C115.771 15 115.092 14.8667 114.527 14.6002C113.969 14.3274 113.541 13.9086 113.242 13.3439C112.944 12.7792 112.795 12.0495 112.795 11.1548V4.27348H115.041V10.736C115.041 11.5546 115.206 12.1669 115.536 12.573C115.872 12.9791 116.393 13.1821 117.097 13.1821C117.776 13.1821 118.315 13.0425 118.715 12.7633C119.115 12.4841 119.397 12.0717 119.562 11.526C119.734 10.9803 119.819 10.3109 119.819 9.51777V4.27348H122.065Z" fill="url(#paint11_linear_7822_24461)"/>
<path d="M29.9154 0.89877C31.0875 0.920353 31.7331 1.23229 31.7331 1.23229L31.711 2.43208L32.6138 3.3311C32.7656 3.48217 32.668 3.72916 32.45 3.74015C31.924 3.76622 31.0332 3.79482 29.8625 3.77326C29.2879 3.76268 28.7813 3.7426 28.3524 3.71945L28.3568 3.71953C28.2886 3.94103 28.2747 4.17472 28.3161 4.40239C28.3576 4.63005 28.4532 4.84554 28.5956 5.03203C28.738 5.21853 28.9234 5.37099 29.1372 5.47753C29.351 5.58407 29.5874 5.64181 29.8281 5.64624C30.0688 5.65068 30.3073 5.60168 30.5248 5.50309C30.7424 5.40449 30.9332 5.25895 31.0824 5.07783C31.2316 4.8967 31.3351 4.68489 31.3849 4.4589C31.4347 4.23291 31.4294 3.99887 31.3694 3.77501C31.5623 3.77181 31.7395 3.76732 31.9001 3.76228C31.9603 4.05518 31.9515 4.3572 31.8743 4.6462C31.797 4.9352 31.6534 5.20384 31.4538 5.43244C31.2542 5.66104 31.0038 5.84379 30.7209 5.9673C30.438 6.09081 30.1297 6.15194 29.8188 6.14622C29.5079 6.14049 29.2021 6.06805 28.9239 5.93421C28.6458 5.80037 28.4022 5.60852 28.2112 5.37273C28.0202 5.13694 27.8865 4.86318 27.82 4.57154C27.7534 4.27989 27.7557 3.97775 27.8267 3.68727C27.6436 3.67471 27.4607 3.6605 27.278 3.64466C27.0605 3.62565 26.9721 3.37548 27.1293 3.2301L28.0649 2.36494L28.087 1.16515C28.087 1.16515 28.7434 0.877186 29.9154 0.89877Z" fill="url(#paint12_linear_7822_24461)"/>
<defs>
<linearGradient id="paint0_linear_7822_24461" x1="61.5228" y1="-6.07505" x2="61.5228" y2="20.3789" gradientUnits="userSpaceOnUse">
<stop stop-color="#00D4E4"/>
<stop offset="0.78125" stop-color="#1F59EE"/>
</linearGradient>
<linearGradient id="paint1_linear_7822_24461" x1="61.5228" y1="-6.07505" x2="61.5228" y2="20.3789" gradientUnits="userSpaceOnUse">
<stop stop-color="#00D4E4"/>
<stop offset="0.78125" stop-color="#1F59EE"/>
</linearGradient>
<linearGradient id="paint2_linear_7822_24461" x1="61.5228" y1="-6.07505" x2="61.5228" y2="20.3789" gradientUnits="userSpaceOnUse">
<stop stop-color="#00D4E4"/>
<stop offset="0.78125" stop-color="#1F59EE"/>
</linearGradient>
<linearGradient id="paint3_linear_7822_24461" x1="61.5228" y1="-6.07505" x2="61.5228" y2="20.3789" gradientUnits="userSpaceOnUse">
<stop stop-color="#00D4E4"/>
<stop offset="0.78125" stop-color="#1F59EE"/>
</linearGradient>
<linearGradient id="paint4_linear_7822_24461" x1="61.5228" y1="-6.07505" x2="61.5228" y2="20.3789" gradientUnits="userSpaceOnUse">
<stop stop-color="#00D4E4"/>
<stop offset="0.78125" stop-color="#1F59EE"/>
</linearGradient>
<linearGradient id="paint5_linear_7822_24461" x1="61.5228" y1="-6.07505" x2="61.5228" y2="20.3789" gradientUnits="userSpaceOnUse">
<stop stop-color="#00D4E4"/>
<stop offset="0.78125" stop-color="#1F59EE"/>
</linearGradient>
<linearGradient id="paint6_linear_7822_24461" x1="61.5228" y1="-6.07505" x2="61.5228" y2="20.3789" gradientUnits="userSpaceOnUse">
<stop stop-color="#00D4E4"/>
<stop offset="0.78125" stop-color="#1F59EE"/>
</linearGradient>
<linearGradient id="paint7_linear_7822_24461" x1="61.5228" y1="-6.07505" x2="61.5228" y2="20.3789" gradientUnits="userSpaceOnUse">
<stop stop-color="#00D4E4"/>
<stop offset="0.78125" stop-color="#1F59EE"/>
</linearGradient>
<linearGradient id="paint8_linear_7822_24461" x1="61.5228" y1="-6.07505" x2="61.5228" y2="20.3789" gradientUnits="userSpaceOnUse">
<stop stop-color="#00D4E4"/>
<stop offset="0.78125" stop-color="#1F59EE"/>
</linearGradient>
<linearGradient id="paint9_linear_7822_24461" x1="61.5228" y1="-6.07505" x2="61.5228" y2="20.3789" gradientUnits="userSpaceOnUse">
<stop stop-color="#00D4E4"/>
<stop offset="0.78125" stop-color="#1F59EE"/>
</linearGradient>
<linearGradient id="paint10_linear_7822_24461" x1="61.5228" y1="-6.07505" x2="61.5228" y2="20.3789" gradientUnits="userSpaceOnUse">
<stop stop-color="#00D4E4"/>
<stop offset="0.78125" stop-color="#1F59EE"/>
</linearGradient>
<linearGradient id="paint11_linear_7822_24461" x1="61.5228" y1="-6.07505" x2="61.5228" y2="20.3789" gradientUnits="userSpaceOnUse">
<stop stop-color="#00D4E4"/>
<stop offset="0.78125" stop-color="#1F59EE"/>
</linearGradient>
<linearGradient id="paint12_linear_7822_24461" x1="61.5228" y1="-6.07505" x2="61.5228" y2="20.3789" gradientUnits="userSpaceOnUse">
<stop stop-color="#00D4E4"/>
<stop offset="0.78125" stop-color="#1F59EE"/>
</linearGradient>
</defs>
</svg>
