<svg width="64" height="64" viewBox="0 0 64 64" fill="none" xmlns="http://www.w3.org/2000/svg">
<path d="M51.7785 17.8106C54.5251 20.728 55.9998 24 55.9998 29.304C55.9998 38.6373 49.4478 47.0026 39.9198 51.1386L37.5385 47.464C46.4318 42.6533 48.1705 36.4106 48.8638 32.4746C47.4318 33.216 45.5571 33.4746 43.7198 33.304C38.9091 32.8586 35.1171 28.9093 35.1171 24C35.1171 21.5246 36.1005 19.1506 37.8508 17.4003C39.6011 15.65 41.9751 14.6666 44.4505 14.6666C47.3118 14.6666 50.0478 15.9733 51.7785 17.8106ZM25.1118 17.8106C27.8585 20.728 29.3331 24 29.3331 29.304C29.3331 38.6373 22.7811 47.0026 13.2531 51.1386L10.8718 47.464C19.7651 42.6533 21.5038 36.4106 22.1971 32.4746C20.7651 33.216 18.8905 33.4746 17.0531 33.304C12.2425 32.8586 8.45312 28.9093 8.45312 24C8.45313 21.5246 9.43645 19.1506 11.1868 17.4003C12.9371 15.65 15.3111 14.6666 17.7865 14.6666C20.6478 14.6666 23.3838 15.9733 25.1145 17.8106H25.1118Z" stroke="url(#paint0_linear_7822_24421)" stroke-width="1.5"/>
<defs>
<linearGradient id="paint0_linear_7822_24421" x1="32.4174" y1="-0.104669" x2="32.4174" y2="64.2173" gradientUnits="userSpaceOnUse">
<stop stop-color="#00D4E4"/>
<stop offset="0.78125" stop-color="#1F59EE"/>
</linearGradient>
</defs>
</svg>
