<svg width="640" height="185" viewBox="0 0 640 185" fill="none" xmlns="http://www.w3.org/2000/svg">
<path d="M156.982 184.321H0C61.7421 143.233 135.061 102.803 204.051 73.723C387.893 -3.663 548.47 -15.3727 639.751 16.5992V39.1906C595.339 21.5562 520.072 21.7996 420.888 42.9877C331.002 62.3498 188.152 115.979 105.358 162.588C89.6184 171.382 95.3088 169.756 161.995 147.364C387.795 71.4259 559.668 69.1124 549.181 153.862C548.294 161.021 543.643 171.649 536.421 184.321H505.773C556.716 103.647 482.708 99.3722 260.448 152.25C239.424 157.155 198.038 170.236 156.982 184.321Z" fill="white"/>
</svg>
